<?xml version="1.0" encoding="utf-8"?>
<!-- Generator: Adobe Illustrator 16.0.0, SVG Export Plug-In . SVG Version: 6.00 Build 0)  -->
<!DOCTYPE svg PUBLIC "-//W3C//DTD SVG 1.1//EN" "http://www.w3.org/Graphics/SVG/1.1/DTD/svg11.dtd">
<svg version="1.1" xmlns="http://www.w3.org/2000/svg" xmlns:xlink="http://www.w3.org/1999/xlink" x="0px" y="0px" width="1184px"
	 height="589px" viewBox="0 0 1184 589" enable-background="new 0 0 1184 589" xml:space="preserve">
<g id="Layer_1">
	<g id="XMLID_2_">
		<circle id="XMLID_3_" fill="#FFD13F" cx="142.239" cy="289.6" r="133.389"/>
		<g id="XMLID_4_">
			<g id="XMLID_2606_">
				<path id="XMLID_6_" fill="#C3002F" d="M142.239,424.914c-74.533,0-135.314-60.781-135.314-135.313
					c0-74.533,60.781-135.314,135.314-135.314c74.533,0,135.314,60.781,135.314,135.314
					C277.554,364.133,216.772,424.914,142.239,424.914z M142.239,158.411c-72.607,0-131.464,58.856-131.464,131.189
					c0,72.332,58.856,131.463,131.464,131.463c72.333,0,131.464-58.855,131.464-131.463
					C273.703,216.992,214.572,158.411,142.239,158.411z"/>
			</g>
			<path id="XMLID_5_" fill="#C3002F" d="M255.551,289.601c0-62.707-50.88-113.587-113.587-113.587
				c-62.432,0.274-113.312,51.155-113.312,113.587c0,62.706,50.88,113.587,113.587,113.587
				C204.671,403.188,255.551,352.307,255.551,289.601z M228.599,355.607L228.599,355.607c-0.825-4.126-6.051-7.426-8.251-8.802
				c-3.851-2.2-6.326-4.675-6.601-7.15c-0.275-1.1,0.275-2.2,0.55-2.75l0.275-0.275c1.1,0.825,4.125,3.025,11.276,7.976
				c3.025,2.2,4.676,4.401,4.676,6.602C230.249,352.856,229.424,354.507,228.599,355.607z M186.794,350.656
				c-0.275,1.375-1.65,2.2-1.925,2.476l-8.801,5.226c-0.55,0.275-1.925,0.825-3.3,0.55c-1.1-0.274-1.925-1.1-2.475-2.75
				l-1.375-3.025l0.275-0.275c0.55-0.825,1.1-1.375,1.65-1.375c0.55,0,0.825-0.55,0.825-0.825c0-0.55-0.275-0.825-0.825-0.825
				c-0.55,0-1.1-0.825-1.65-1.375c-0.825-1.1-2.2-2.475-4.125-2.475v-3.025c6.875-1.101,11.001-2.751,14.026-5.501l0,0l6.876,9.901
				C186.794,348.456,187.069,349.557,186.794,350.656z M187.619,354.231c0.275,0,0.55,0,0.825,0
				c0.825,0.275,1.375,0.825,1.925,1.376c0.275,0.825,0.55,1.649,0.275,2.2c-0.275,0.825-0.825,1.375-1.375,1.925l-0.55,0.275l0,0
				l-9.076,5.226c-1.375,0.825-3.3,0.274-4.125-1.101c-0.275-0.825-0.55-1.65-0.275-2.2c0.275-0.825,0.825-1.375,1.375-1.925
				l0.55-0.275l0,0l8.801-5.226l0,0l0.55-0.275C186.519,354.231,187.069,354.231,187.619,354.231z M167.542,351.757
				c-0.825,1.1-1.65,1.925-2.75,1.925h-44.28c-1.1,0-1.925-0.825-2.75-1.925c-0.275-0.275-0.825-0.825-1.1-1.101
				c0.275-0.274,0.825-0.825,1.1-1.1c0.825-1.101,1.65-1.926,2.75-1.926h44.004c1.101,0,1.925,0.825,2.75,1.926
				c0.275,0.274,0.825,0.825,1.1,1.1C168.367,350.932,167.817,351.481,167.542,351.757z M121.887,378.159
				c3.025-1.925,4.951-5.226,6.051-9.9c1.375,3.025,4.675,5.226,7.701,6.875c2.2,1.375,4.4,2.751,5.226,4.126h-22.002
				C119.962,379.26,120.787,378.71,121.887,378.159z M113.361,378.435c1.925-0.825,4.4-2.476,5.226-5.501
				c0.275-0.55,0.275-1.1,0.55-1.649c0.55-1.376,0.825-3.025,1.925-4.676c1.375-2.476,3.85-4.676,5.226-5.501v3.301
				c-0.275,6.325-2.201,10.451-5.501,12.651C118.587,378.159,115.837,378.435,113.361,378.435z M136.464,373.759
				c-3.575-2.2-7.426-4.4-7.426-7.976v-6.051h12.376v11.826c0,0.275,0.275,0.825,0.825,0.825c0.55,0,0.825-0.275,0.825-0.825
				v-11.826h12.102c0,0.825,0,2.476,0,6.051s-3.851,5.775-7.426,7.976c-2.2,1.375-4.4,2.75-5.776,4.4
				C140.864,376.509,138.664,375.134,136.464,373.759z M148.84,375.409c3.025-1.925,6.601-4.125,7.701-7.426
				c0.825,4.676,2.75,7.976,6.051,10.176c0.825,0.551,1.925,1.101,3.025,1.375h-22.002
				C144.44,378.159,146.64,376.784,148.84,375.409z M163.417,376.509c-3.3-2.2-5.225-6.601-5.5-12.65v-3.301
				c1.65,0.55,4.125,3.301,5.5,5.775c1.1,1.65,1.375,3.301,1.925,4.676c0.275,0.55,0.275,1.1,0.55,1.65
				c1.1,3.025,3.3,4.675,5.226,5.5C168.917,378.435,165.892,378.159,163.417,376.509z M142.515,357.808l-0.275-0.275
				c0,0-0.275,0-0.275,0.275h-20.352v-2.2h41.529v2.2H142.515z M124.638,359.732h0.55c-1.925,1.375-3.85,3.575-5.226,5.775
				c-1.1,1.65-1.65,3.301-1.925,4.951c-0.275,0.55-0.275,1.1-0.55,1.649c-1.1,3.025-3.3,4.4-5.226,4.951
				c0.825-1.65,1.1-4.126,1.375-6.326c0.275-1.375,0.275-2.475,0.55-3.3C116.937,360.282,124.087,359.732,124.638,359.732z
				 M175.243,381.46c1.375,0,2.475,1.1,2.475,2.475c0,1.376-1.1,2.476-2.475,2.476h-66.007c-1.375,0-2.475-1.1-2.475-2.476
				c0-1.375,1.1-2.475,2.475-2.475H175.243z M167.267,372.384c-0.275-0.55-0.275-1.1-0.55-1.65c-0.55-1.65-1.1-3.3-1.925-4.95
				c-1.375-2.2-3.3-4.676-5.226-5.775h0.275c0.55,0,7.976,0.55,10.451,7.7c0.275,0.825,0.275,1.926,0.55,3.301
				c0.275,2.2,0.55,4.4,1.375,6.325C170.292,376.234,168.367,374.859,167.267,372.384z M114.461,349.831
				c-0.55,0-0.825,0.551-0.825,0.825c0,0.551,0.275,0.825,0.825,0.825c0.55,0,0.825,0.55,1.375,0.825l-1.65,3.575
				c-0.55,1.375-1.375,2.2-2.475,2.751c-1.375,0.55-2.75-0.275-3.3-0.551l-8.526-4.95l-0.275-0.275
				c-0.55-0.274-1.65-1.1-1.925-2.475c-0.275-1.101,0-2.2,1.101-3.576l6.875-10.176c3.025,2.476,7.426,4.4,14.026,5.501v3.575
				c-1.375,0.275-2.475,1.375-3.3,2.476C115.837,349.006,115.287,349.557,114.461,349.831z M108.961,364.408
				c-0.825,1.375-2.75,1.925-4.125,1.1l-9.076-5.226l0,0l-0.55-0.274c-0.825-0.275-1.1-1.101-1.375-1.926s0-1.649,0.275-2.2
				c0.55-1.1,1.65-1.65,2.75-1.65c0.55,0,1.1,0,1.65,0.275l8.801,5.226l0.275,0.275l0,0l0.55,0.274
				C109.236,361.107,109.786,362.758,108.961,364.408z M66.332,327.004c-0.275-0.825-0.55-1.65-0.275-2.2
				c0.275-0.825,0.825-1.375,1.375-1.925c0.55-0.275,1.1-0.275,1.375-0.275s0.55,0,0.825,0c0.825,0.275,1.375,0.825,1.925,1.375
				l5.5,9.626c0.275,0.825,0.55,1.65,0.275,2.2c-0.275,0.825-0.825,1.375-1.375,1.926c-1.375,0.825-3.3,0.274-4.125-1.101
				L66.332,327.004z M68.807,335.255l-10.451,7.426c-0.275,0.275-0.55,0.275-0.825,0.55c-0.275,0-0.275,0.275-0.55,0.275
				l-0.275,0.274c-3.025,2.201-7.151,0.825-8.801,0.275c0.275-1.65,1.375-5.775,4.676-7.426l13.477-6.325L68.807,335.255z
				 M73.482,323.429c-0.275-0.55-0.825-1.925-0.55-3.301c0.275-1.1,1.1-1.925,2.75-2.475l19.527-9.352
				c0.275,0.551,0.55,1.101,0.825,1.65c1.375,3.851,2.2,7.701,2.75,11.276c0.275,0.825,0.275,1.375,0.275,2.2l-14.577,9.901
				c-1.375,0.825-2.475,1.375-3.575,1.1c-1.375-0.274-2.2-1.65-2.476-1.925L73.482,323.429z M97.685,309.402
				c-2.2-6.326-5.775-8.526-8.801-10.451c-2.2-1.375-3.851-2.476-4.4-4.95c0.55,0.55,2.75,3.025,7.976,4.4
				c6.326,1.65,8.801,4.675,10.451,11.826c0.55,2.2,0.825,4.4,1.1,6.875c1.375,9.352,2.75,19.803,15.127,23.103
				c-15.402-2.475-16.777-9.626-18.702-19.802C99.885,317.378,99.06,313.527,97.685,309.402z M84.208,297.576L84.208,297.576
				l-13.751,1.1c-1.65,0-2.75-0.274-3.576-0.825c-1.1-0.824-1.1-2.475-1.1-3.025v-10.176c0-0.55,0-2.2,1.1-3.025
				c0.55-0.55,1.65-0.824,2.75-0.824c0.275,0,0.55,0,0.825,0l47.855,3.575l0,0l5.226,0.274l0,0h0.825v9.901
				c-1.375-0.825-2.75-1.65-2.75-2.476c0-0.55-0.55-0.825-0.825-0.825c-0.55,0-0.825,0.275-0.825,0.825
				c-0.275,1.1-1.925,2.2-3.85,3.301c-0.275,0-0.275,0.275-0.55,0.275c-0.55-0.551-1.65-1.101-2.2-1.65
				c-0.825-0.551-1.925-1.375-2.2-1.926c0-0.55-0.55-0.825-0.825-0.825c-0.55,0-0.825,0.275-0.825,0.825
				c0,0.551-1.1,1.1-2.201,1.926c-0.825,0.55-1.925,1.1-2.475,1.925c-2.75-1.375-6.326-2.2-10.451-2.476
				c-5.226-0.275-8.25-1.1-10.176-2.75c-0.275-0.274-0.55-0.274-1.1,0c-0.275,0.275-0.55,0.55-0.55,0.825
				C82.008,294.275,83.108,296.2,84.208,297.576z M66.332,252.472l5.5-9.626c0.275-0.825,1.1-1.101,1.925-1.376
				c0.275,0,0.55,0,0.825,0c0.55,0,1.1,0,1.375,0.275c0.825,0.275,1.1,1.101,1.375,1.926c0.275,0.824,0,1.649-0.275,2.2l-5.5,9.626
				c-0.825,1.375-2.75,1.925-4.125,1.1S65.506,253.847,66.332,252.472z M54.505,243.671c-0.275,0-0.55-0.275-0.825-0.275
				s-0.275-0.275-0.55-0.275l-0.55-0.274c-3.575-1.65-4.4-5.776-4.676-7.426c1.65-0.551,5.776-1.926,8.801,0.274l12.101,8.526
				l-2.75,4.95L54.505,243.671z M73.482,256.047l5.226-8.801c0.275-0.551,1.1-1.65,2.475-1.926c0.275,0,0.275,0,0.55,0
				c0.825,0,1.925,0.275,2.75,1.101l39.604,26.953l0.55,1.1l0,0c0,0,0,0.275,0,0.55c0,0.551,0.275,0.825,0.825,0.825
				c0.275,0,0.55,0.55,0.825,0.825c0.55,0.825,1.375,1.65,2.75,1.65h0.825l0,0v0.275c0,0.55-1.1,1.1-2.2,1.649
				c-1.1,0.825-2.476,1.65-3.3,2.751l-5.501-0.551l-43.179-20.902c-1.375-0.55-2.2-1.375-2.75-2.475
				C72.657,257.697,73.207,256.322,73.482,256.047z M205.221,207.917c1.65,0,3.025,1.375,3.025,3.025v2.75H75.958v-2.476
				c0-1.65,1.375-3.025,3.025-3.025h126.238V207.917z M134.539,206.267c0.55-0.55,1.375-0.825,1.925-0.825h11.276
				c0.825,0,1.375,0.275,1.925,0.825H134.539z M208.247,215.343v4.675H75.958v-4.675H208.247z M208.247,222.218v2.476
				c0,1.65-1.375,3.025-3.025,3.025H78.983c-1.65,0-3.025-1.375-3.025-3.025v-2.476H208.247z M166.167,250.271
				c0,6.601-1.65,11.551-4.951,14.301c-1.925,1.65-4.4,2.476-6.326,2.476c0.275,0,0.275-0.275,0.55-0.275
				c3.851-2.75,5.775-9.626,5.775-20.077c0-1.925,0.55-10.726,11.276-14.026c-0.275,0.275-0.55,0.275-0.55,0.551
				C166.442,237.62,166.167,247.246,166.167,250.271z M217.873,252.472c0.275,0.825,0.55,1.649,0.275,2.2
				c-0.275,0.825-0.825,1.375-1.375,1.925c-0.825,0.275-1.65,0.55-2.2,0.275c-0.825-0.275-1.375-0.825-1.925-1.375l-0.275-0.551l0,0
				l-2.476-4.4l-2.75-4.95c-0.275-0.825-0.55-1.65-0.275-2.2c0.275-0.825,0.825-1.375,1.375-1.925c0.55-0.275,1.1-0.275,1.65-0.275
				c1.1,0,2.2,0.55,2.75,1.65L217.873,252.472z M215.397,244.221l10.451-7.426c0.275-0.275,0.55-0.275,0.825-0.55
				c0.275,0,0.275-0.275,0.55-0.275l0.275-0.275c3.025-2.2,7.151-0.825,8.801-0.274c-0.275,1.649-1.375,5.775-4.675,7.426
				l-13.477,6.325L215.397,244.221z M210.172,254.672l0.825,1.375c0.275,0.55,0.825,1.925,0.55,3.3
				c-0.275,1.101-1.1,1.926-2.75,2.476l-43.455,20.627l-5.226,0.275l0,0c-0.55-1.101-1.925-1.925-3.3-2.75
				c-0.825-0.551-1.65-1.101-1.925-1.375v-0.551h1.1c1.375,0,2.201-1.1,2.75-1.65c0.275-0.274,0.55-0.824,0.825-0.824
				c0.55,0,0.825-0.551,0.825-0.825c0-0.551-0.275-0.825-0.825-0.825l0.275-0.55l39.604-26.953c1.375-0.825,2.476-1.375,3.576-1.101
				c1.375,0.275,2.2,1.65,2.475,1.926L210.172,254.672z M213.747,280.8c1.65-0.275,2.75,0.274,3.575,0.824
				c1.1,0.825,1.1,2.476,1.1,3.025v10.176c0,0.551,0,2.201-1.1,3.025c-0.825,0.825-1.925,1.101-3.575,0.825l-13.477-1.1
				c1.375-1.376,2.2-3.301,2.2-6.051c0-0.275-0.275-0.825-0.55-0.825c-0.275-0.274-0.825,0-1.1,0c-2.2,1.65-5.226,2.475-10.176,2.75
				c-4.125,0.275-7.426,1.101-10.176,2.476c-0.825-0.825-1.65-1.375-2.476-1.65c-0.825-0.55-1.925-1.375-2.2-1.925
				c0-0.551-0.55-0.825-0.825-0.825c-0.55,0-0.825,0.274-0.825,0.825c0,0.55-1.1,1.1-2.2,1.925c-0.825,0.55-1.65,1.101-2.476,1.925
				c-0.275-0.274-0.55-0.274-0.825-0.549c-1.65-1.101-3.575-2.201-3.85-3.301c0-0.551-0.55-0.825-0.825-0.825
				c-0.55,0-0.825,0.274-0.825,0.825c-0.275,0.824-1.1,1.65-2.475,2.475v-10.176l14.301-1.1l0,0L213.747,280.8z M129.038,301.701
				c-1.1,1.375-1.925,3.025-1.925,4.676v32.453c-5.226-3.025-6.05-11.551-6.05-15.126v-21.178c0-0.275-0.275-0.825-0.825-0.825
				c-0.55,0-0.825,0.275-0.825,0.825v21.178c0,3.3,0.55,10.176,4.125,14.301c-2.475-1.649-4.4-3.85-5.5-7.976
				c-0.55-2.2-1.1-5.226-1.375-8.251c-0.825-6.325-1.65-13.477-5.226-18.977v-0.551c0-2.199,2.476-3.85,4.951-5.225
				c1.375-0.826,3.025-1.926,3.851-3.025c0.825,0.824,1.925,1.375,3.025,2.199C126.013,297.851,128.488,299.501,129.038,301.701z
				 M159.292,231.844c-0.55,0.275-0.825,0.551-1.375,1.101c-0.55-0.55-1.375-0.825-1.925-1.101c-0.825-0.55-1.925-1.1-2.2-1.649
				v-0.275h11.001C162.867,229.919,160.941,230.469,159.292,231.844z M172.768,231.02c-6.601,1.925-12.926,6.875-12.926,15.676
				c0,12.377-2.75,17.053-4.951,18.978c-1.1,0.825-2.2,1.1-3.025,1.1c0.275-2.475,1.1-8.25,2.475-22.002
				c0.55-5.226,2.475-9.076,6.051-11.276C163.967,231.02,168.917,230.744,172.768,231.02z M155.166,233.22
				c0.55,0.274,1.1,0.55,1.375,0.824c-1.65,1.65-2.75,3.851-3.575,6.602c0-0.551-0.275-0.825-0.275-1.101
				c-0.55-1.925-2.2-3.575-4.125-4.676c0.55-0.55,1.375-1.1,2.201-1.649c0.825-0.551,1.375-0.825,2.2-1.376
				C153.516,232.119,154.341,232.669,155.166,233.22z M152.141,229.644c0,0.551-1.1,1.101-2.2,1.65
				c-0.825,0.55-1.925,1.101-2.75,1.926c0,0,0,0-0.275,0c-1.925-1.376-3.575-2.476-3.851-3.851v-0.275h9.076
				C152.141,229.644,152.141,229.644,152.141,229.644z M146.09,234.869c2.2,1.376,4.4,3.025,4.951,4.951
				c0.825,2.2,0.825,9.626,0,16.776l-1.375,10.451h-6.875v-29.153c0-0.274-0.275-0.825-0.825-0.825c-0.55,0-0.825,0.275-0.825,0.825
				v29.429h-6.326l-1.375-10.451c-0.825-7.426-0.55-14.852,0-16.777c0.55-2.2,2.75-3.575,4.951-4.95
				c1.375-1.1,2.75-1.925,3.575-3.025C143.34,232.944,144.715,234.044,146.09,234.869z M141.415,229.644
				c-0.275,1.376-1.925,2.476-3.851,3.851c0,0,0,0-0.275,0c-0.825-0.825-1.65-1.375-2.75-1.925c-0.825-0.55-1.925-1.101-2.2-1.65
				c0-0.275,0-0.275-0.275-0.275H141.415L141.415,229.644z M133.713,233.22c0.825,0.55,1.375,0.824,1.925,1.375
				c-1.65,1.375-3.3,2.75-4.125,4.95c0,0.275-0.275,0.55-0.275,1.101c-0.825-2.476-1.925-4.676-3.3-6.326
				c0.55-0.275,0.825-0.55,1.375-0.825c0.825-0.55,1.375-0.825,2.2-1.375C132.338,232.395,133.164,232.669,133.713,233.22z
				 M130.963,229.919c0,0.55-1.1,1.101-2.2,1.65c-0.55,0.274-1.375,0.825-1.925,1.1c-0.55-0.274-0.825-0.825-1.375-1.1
				c-1.65-1.101-3.576-1.926-5.776-2.2h11.276C130.963,229.644,130.963,229.644,130.963,229.919z M124.363,233.22
				c3.575,2.2,5.5,6.05,6.05,11.275c1.375,13.752,2.2,19.527,2.476,22.003c-0.55,0-1.925,0-3.576-1.101
				c-2.2-1.649-4.95-6.601-4.95-18.977c0-8.801-6.326-13.752-12.927-15.677C115.562,230.469,120.512,230.744,124.363,233.22z
				 M132.063,269.248L132.063,269.248h2.2l0,0h16.227l0,0h2.2c0.275,0,0.275,0,0.55,0l0,0v1.926h-21.177V269.248z M155.991,272.823
				c0.55,0,0.825,0.275,1.375,1.101c0.275,0.274,0.275,0.274,0.55,0.55c-0.275,0.275-0.275,0.275-0.55,0.55
				c-0.55,0.551-0.825,1.101-1.375,1.101h-26.678c-0.55,0-0.825-0.275-1.375-1.101c-0.275-0.274-0.275-0.274-0.55-0.55
				c0.275-0.275,0.275-0.275,0.55-0.55c0.55-0.55,0.825-1.101,1.375-1.101H155.991z M163.967,294.551
				c0.825,1.101,2.2,1.925,3.851,2.75c2.2,1.65,4.95,3.025,4.95,5.501v0.55c-3.3,5.501-4.4,12.651-5.226,18.702
				c-0.275,3.025-0.825,5.775-1.375,8.251c-1.1,4.675-3.575,7.15-6.326,8.525c4.125-4.125,4.675-11.551,4.675-14.852v-21.177
				c0-0.275-0.275-0.825-0.825-0.825c-0.55,0-0.825,0.274-0.825,0.825v21.177c0,3.575-0.55,12.377-6.051,15.127
				c0-7.426,0-26.953,0-32.454c0-1.649-0.55-3.024-1.65-4.4c0.275-1.925,2.75-3.3,4.95-4.675
				C161.767,296.476,163.142,295.651,163.967,294.551z M171.118,297.301c0.55-0.55,1.1-0.825,1.925-1.375
				c0.825-0.55,1.375-0.825,1.925-1.375c0.55,0.55,1.375,1.101,1.925,1.375c0.55,0.274,1.1,0.825,1.65,1.101
				c-1.65,1.1-3.3,2.475-4.4,3.85C173.593,299.501,172.493,298.401,171.118,297.301z M158.741,296.2
				c-1.65,1.101-3.3,2.201-4.4,3.852v-15.677c0-0.275-0.275-0.825-0.825-0.825c-0.55,0-0.825,0.274-0.825,0.825v15.677
				c-1.1-0.826-2.475-1.65-3.85-2.476v-12.651c0-1.101,1.375-1.925,2.75-2.75c0.825-0.551,1.375-0.825,2.2-1.375
				c0.55,0.55,1.375,1.1,2.201,1.375c1.375,0.825,2.75,1.649,2.75,2.75V296.2z M141.964,301.427c-0.275,0-0.825,0.274-0.825,0.824
				v39.055h-9.076c-0.275,0-0.55-0.275-0.825-0.275c-0.55-0.274-1.375-0.274-2.2-0.55v-33.829c0-3.575,3.851-5.775,7.426-7.976
				c2.2-1.375,4.4-2.75,5.775-4.4c1.101,1.65,3.301,3.025,5.776,4.4c3.575,2.2,7.426,4.4,7.426,7.976c0,6.326,0,28.054,0,34.104
				c-0.55,0.274-1.1,0.274-1.925,0.55c-0.275,0-0.55,0.274-0.825,0.274h-10.176v-39.329
				C142.515,301.701,142.239,301.427,141.964,301.427z M144.44,281.624c1.375,0.825,2.75,1.65,2.75,2.751v11.551
				c-2.2-1.375-4.125-2.751-4.4-4.4c0-0.275-0.275-0.55-0.275-0.55V290.7V284.1c0-0.275-0.275-0.825-0.825-0.825
				s-0.825,0.275-0.825,0.825v6.601c0,0.275,0,0.275,0,0.275c-0.275,0-0.275,0.274-0.275,0.55c-0.275,1.375-1.65,2.476-3.575,3.851
				v-11.001c0-1.101,1.375-1.926,2.75-2.751c0.825-0.55,1.375-0.824,2.2-1.375C143.064,280.8,143.615,281.35,144.44,281.624z
				 M143.34,278.049h9.901l0,0v0.275c0,0.55-1.1,1.1-2.2,1.65c-0.825,0.55-1.925,1.1-2.75,1.925
				c-0.825-0.825-1.925-1.375-2.75-1.925c-0.825-0.551-1.925-1.101-2.2-1.65V278.049z M141.415,278.324c0,0.55-1.1,1.1-2.2,1.65
				c-0.825,0.55-1.925,1.1-2.75,1.925c-0.825-0.825-1.925-1.375-2.75-1.925c-0.825-0.551-1.65-1.101-1.925-1.375v-0.551h9.626
				C141.689,278.049,141.415,278.324,141.415,278.324z M132.889,281.624c1.375,0.825,2.75,1.65,2.75,2.751v12.376l-0.275,0.275
				c-1.375,0.824-2.75,1.649-4.125,2.75V284.1c0-0.275-0.275-0.825-0.825-0.825c-0.55,0-0.825,0.275-0.825,0.825v15.126
				c-0.825-1.375-2.476-2.475-3.851-3.3v-11.551c0-1.101,1.375-1.926,2.75-2.751c0.825-0.55,1.375-0.824,2.2-1.375
				C131.513,280.8,132.338,281.35,132.889,281.624z M110.336,300.876c-1.1-1.375-2.475-2.75-4.125-3.575
				c0.55-0.55,1.1-0.825,1.925-1.375s1.375-0.825,1.925-1.375c0.55,0.55,1.375,1.101,1.925,1.375c0.55,0.274,1.1,0.825,1.65,1.101
				C112.261,298.126,110.886,299.501,110.336,300.876z M115.287,322.328c0.275,3.025,0.825,6.051,1.375,8.526
				c1.375,4.676,3.851,7.426,6.601,9.351c-14.852-1.925-16.227-12.651-17.602-22.827c-0.275-2.476-0.55-4.95-1.1-7.15
				c-1.925-7.701-4.676-11.002-11.551-12.927c-2.475-0.55-4.125-1.649-5.226-2.476c2.2,0.551,4.4,0.826,6.326,0.826
				C111.711,296.751,113.637,310.228,115.287,322.328z M121.337,343.506h41.529v2.2h-41.529V343.506z M161.492,339.931
				c2.75-1.65,5.226-4.4,6.326-9.076c0.55-2.476,1.1-5.226,1.375-8.526c1.65-12.101,3.3-25.577,21.452-26.677
				c1.925,0,3.851-0.275,5.776-0.826c-1.1,0.826-2.75,1.65-4.951,2.201c-6.876,1.925-9.626,5.225-11.551,12.926
				c-0.55,2.2-0.825,4.676-1.1,7.15C177.168,327.279,175.793,337.73,161.492,339.931z M158.741,271.724l-0.55,0.274
				c-0.55-0.55-1.375-1.1-2.2-1.1h-1.101v-1.926c2.2-0.274,4.951-1.1,7.426-3.024c0.275-0.275,0.275-0.275,0.55-0.551
				L158.741,271.724z M173.043,234.319c1.925-1.65,4.4-2.476,7.426-1.925c0.55,0,0.825-0.275,1.1-0.825
				c0-0.55-0.275-0.825-0.55-1.101c-0.275,0-2.2-0.825-4.951-1.1h11.001c0,0.825-0.275,1.65-1.1,2.75l-19.252,28.328
				c1.101-2.75,1.65-6.326,1.65-10.176C168.092,247.521,168.367,238.445,173.043,234.319z M108.961,229.369
				c-2.75,0.55-4.951,1.1-4.951,1.1c-0.55,0.275-0.825,0.551-0.55,1.101c0,0.55,0.55,0.825,1.1,0.825
				c3.025-0.275,5.5,0.274,7.426,1.925c4.675,4.126,4.951,13.201,4.951,15.677c0,4.95,0.825,9.076,2.475,12.102l-20.627-30.254
				c-0.55-0.824-1.101-1.925-1.101-2.75h11.276V229.369z M118.587,250.271c0-2.751-0.275-12.651-5.5-17.327l-0.275-0.275
				c9.626,3.576,10.451,12.102,10.451,13.752c0,10.451,1.925,17.327,5.775,20.077c0.275,0,0.275,0.274,0.55,0.274
				c-1.925-0.274-3.85-1.1-5.775-2.475C119.962,261.822,118.312,256.872,118.587,250.271z M122.162,265.948
				c2.476,2.2,5.501,2.75,7.976,3.024v1.926h-0.825c-1.1,0-1.925,0.825-2.75,1.375l0,0l-1.1-0.825l-4.951-7.15l0,0
				C121.063,264.848,121.612,265.397,122.162,265.948z M164.242,340.756c12.926-3.301,14.302-13.752,15.677-23.378
				c0.275-2.476,0.55-4.95,1.1-6.876c1.65-7.426,4.125-10.176,10.451-11.826c5.5-1.649,7.976-4.4,8.251-4.675v-0.275
				c0,0,0.275,0,0.275-0.275c-0.55,2.476-2.2,3.851-4.675,5.226c-3.025,1.925-6.601,4.4-8.801,10.451
				c-1.375,4.126-2.2,7.976-2.75,11.552C182.119,331.13,180.744,338.556,164.242,340.756z M185.969,321.229
				c0.825-3.575,1.375-7.426,2.75-11.276c0.275-0.55,0.55-1.1,0.55-1.65l19.252,9.352c1.375,0.55,2.2,1.375,2.75,2.475
				c0.55,1.376-0.275,2.751-0.55,3.301l-4.951,8.801c-0.275,0.55-1.1,1.65-2.475,1.926c-1.1,0.274-2.2,0-3.575-1.101l-14.302-9.626
				l0,0C185.694,322.879,185.694,322.054,185.969,321.229z M207.146,333.604l0.275-0.55l0,0l2.475-4.4l2.75-4.95
				c0.825-1.376,2.75-1.926,4.125-1.101s1.925,2.75,1.1,4.126l-5.5,9.626c-0.275,0.824-1.1,1.1-1.925,1.375
				c-0.825,0.274-1.65,0-2.2-0.275C206.596,336.905,206.321,334.979,207.146,333.604z M229.974,335.805
				c0.275,0,0.55,0.275,0.825,0.275s0.275,0,0.55,0.275l0.55,0.274c3.576,1.65,4.4,5.775,4.675,7.426
				c-1.65,0.55-5.775,1.926-8.801-0.274l-12.101-8.526l2.75-4.95L229.974,335.805z M231.899,352.856c0-0.55,0.275-1.1,0.275-1.649
				c0-1.65-0.55-3.025-1.65-4.401c0.55,0,0.825,0,1.375,0c1.925,0,3.576-0.55,4.675-0.824
				C235.199,348.456,233.549,350.656,231.899,352.856z M238.225,343.23c-0.275-1.375-0.825-3.575-2.2-5.5c0.275,0,0.55,0,0.825,0
				c1.375,0,2.75-0.275,3.85-0.825c0.55-0.275,1.1-0.55,1.375-1.101C240.7,338.28,239.6,340.756,238.225,343.23z M239.6,335.255
				c-1.925,1.101-4.4,0.825-7.426-0.55l-1.375-0.825c-7.151-3.301-10.176-4.951-11.551-5.501l0,0c0.275-0.55,1.1-1.649,2.2-1.925
				c2.2-0.825,5.5-0.275,9.351,2.2c2.2,1.375,7.701,4.125,11.551,2.75c0,0,0,0,0.275,0
				C242.075,333.055,240.975,334.43,239.6,335.255z M245.375,327.829c0-0.275-0.275-0.275-0.55-0.55c-0.55,0-0.825,0.274-1.1,0.55
				c-0.275,0.825-0.825,1.65-1.65,1.925c-2.476,0.825-6.876-0.825-9.901-2.75c-4.675-2.75-8.25-3.575-11.001-2.2
				c-0.275,0-0.275,0.275-0.55,0.275c0-1.65-1.101-3.025-2.476-3.851s-3.025-0.825-4.4-0.275c0-0.55,0-0.825-0.275-1.375
				c-0.55-1.65-1.65-2.75-3.576-3.575l-19.252-9.352c1.925-3.3,4.4-4.95,6.601-6.325c0.55-0.274,1.101-0.55,1.375-1.101
				l15.401,1.101c0.275,0,0.55,0,0.825,0c1.65,0,3.025-0.55,4.125-1.375c0.275-0.275,0.55-0.55,0.825-1.101
				c0.825,1.101,2.2,1.926,3.85,1.926c1.65,0,3.3-0.825,4.125-2.201l0.275,0.275c1.925,2.476,5.5,3.576,10.726,3.576
				c3.85,0,8.25,0.55,9.901,2.75c0.55,0.825,0.825,1.65,0.55,2.475c0,0.551,0.275,0.825,0.55,1.101h0.275c0.275,0,0.275,0,0.55,0
				C249.501,314.902,247.576,321.504,245.375,327.829z M220.348,295.376v-0.551v-10.176v-0.55c0-1.65,1.375-3.025,3.025-3.025
				s3.025,1.375,3.025,3.025v11.276c0,1.65-1.375,3.025-3.025,3.025S220.348,297.026,220.348,295.376z M242.625,283.824l-1.65,0.275
				c-7.976,0.55-11.276,0.825-12.651,1.101v-0.275c0-0.825,0.275-1.65,0.825-2.75c1.375-1.926,4.676-2.751,9.076-2.751h0.275
				c2.476,0,8.801-0.274,11.551-3.3l0,0c0.275,1.375,0,3.025-0.825,4.676C248.125,282.175,245.925,283.274,242.625,283.824z
				 M251.151,289.601c-1.1,1.375-4.125,4.4-7.701,4.125l-14.852-1.375v-5.501l12.926-1.1c0.275,0,0.55,0,0.825,0s0.275,0,0.55,0
				h0.55C247.025,285.2,250.051,288.226,251.151,289.601z M242.075,295.651c3.575,0.274,6.05,1.375,7.426,3.3
				c0.825,1.375,0.825,3.025,0.825,4.676l0,0c-2.475-3.026-8.526-3.301-11.276-3.301h-0.275c-4.676,0-7.701-0.825-9.351-2.75
				c-0.825-0.825-0.825-1.925-0.825-2.751v-0.274C229.699,294.551,233.549,294.825,242.075,295.651z M251.701,299.776
				c-0.275-0.551-0.275-1.101-0.825-1.65c-0.825-1.375-1.925-2.475-3.575-3.025c2.2-0.825,3.85-2.475,4.675-3.575
				C251.976,294.001,251.976,297.026,251.701,299.776z M251.701,279.699c0.275,2.75,0.275,5.501,0.55,8.251
				c-0.825-1.101-2.475-2.75-4.675-3.575c1.65-0.825,2.75-1.65,3.575-3.025C251.151,280.8,251.426,280.249,251.701,279.699z
				 M243.45,251.371c0.275,0.55,0.55,0.825,1.1,0.55c0.275,0,0.55-0.274,0.55-0.55c2.475,6.326,4.125,12.927,5.225,19.803
				c-0.275,0-0.55-0.275-0.825,0c-0.55,0.274-0.825,0.55-0.55,1.1c0.275,1.101,0,1.925-0.55,2.476
				c-1.65,1.925-6.326,2.75-9.901,2.75c-5.226,0-8.801,1.101-10.726,3.575c0,0.275-0.275,0.275-0.275,0.55
				c-0.825-1.375-2.475-2.2-4.125-2.2s-3.025,0.825-3.851,1.926c-0.275-0.275-0.55-0.825-0.825-1.101
				c-1.1-1.1-2.75-1.649-4.951-1.375l-43.18,3.301l39.054-18.702c1.925-0.825,3.025-2.2,3.575-3.575
				c0.275-0.551,0.275-0.825,0.275-1.375c0.275,0,0.55,0.274,0.825,0.274c0.55,0,0.825,0.275,1.375,0.275
				c0.825,0,1.65-0.275,2.475-0.55c1.1-0.551,1.925-1.65,2.2-3.025c0-0.275,0-0.551,0.275-0.825c0.275,0,0.275,0.274,0.55,0.274
				c0.825,0.275,1.65,0.551,2.75,0.551c2.476,0,5.226-0.825,8.251-2.751c3.3-1.925,7.426-3.575,9.901-2.75
				C242.625,249.721,243.175,250.271,243.45,251.371z M242.35,247.796c-3.851-1.375-9.351,1.65-11.551,2.75
				c-3.851,2.2-7.151,3.025-9.351,2.2c-1.1-0.55-1.925-1.375-2.2-2.2l0,0c1.375-0.55,4.675-2.2,12.376-5.775
				c3.3-1.65,6.051-1.925,7.976-0.825C240.975,245.046,242.075,246.421,242.35,247.796
				C242.625,247.796,242.35,247.796,242.35,247.796z M242.075,243.671c-0.55-0.275-0.825-0.825-1.375-1.101
				c-1.375-0.825-3.025-1.101-4.675-0.825c1.375-1.925,1.925-4.125,2.475-5.5C239.6,238.445,240.7,240.92,242.075,243.671z
				 M231.899,226.344c1.65,2.2,3.025,4.676,4.4,6.876c-1.375-0.551-3.575-1.101-5.775-0.825c1.1-1.375,1.65-3.025,1.65-4.4
				C232.174,227.443,232.174,226.894,231.899,226.344z M228.599,223.594c0.825,1.1,1.65,2.75,1.65,4.4c0,2.2-1.375,4.4-4.125,6.325
				l-1.1,0.825c-6.601,4.4-9.351,6.601-10.451,7.426l-0.275-0.275c-0.275-0.55-0.55-1.649-0.55-2.75
				c0.275-2.476,2.475-4.95,6.601-7.15C222.548,231.02,228.048,227.719,228.599,223.594
				C228.599,223.868,228.599,223.594,228.599,223.594z M210.722,205.717c0.275,0.274,0.825,0.274,1.375,0
				c0.275-0.275,0.275-0.275,0.275-0.551c5.226,4.4,9.901,9.076,14.301,14.302c-0.275,0-0.55,0-0.55,0.275
				c-0.275,0.274-0.275,0.825,0,1.375c0.55,0.825,0.825,1.65,0.825,2.476c-0.55,2.475-4.125,5.5-7.426,7.15
				c-4.675,2.476-7.15,5.501-7.426,8.525c0,0.275,0,0.275,0,0.551c-1.375-0.551-3.025-0.551-4.675,0.274
				c-1.375,0.825-2.2,2.2-2.475,3.851c-0.275-0.274-0.825-0.274-1.375-0.55c-1.65-0.275-3.3,0-4.95,1.375l-35.754,24.478
				l24.478-35.754c0.825-1.375,1.375-2.475,1.375-3.851h16.502c2.75,0,4.951-2.2,4.951-4.95v-13.477c0-2.75-2.2-4.95-4.951-4.95
				c0.275,0,0.55,0,0.55,0c0.825-0.55,1.65-1.101,2.475-1.101C209.347,204.892,210.172,205.166,210.722,205.717z M207.972,203.241
				c-1.65,0.275-3.301,1.65-4.676,3.025h-6.051c2.2-3.025,4.401-4.676,6.601-4.676C205.496,201.591,206.871,202.141,207.972,203.241
				C208.247,203.241,207.972,203.241,207.972,203.241z M205.496,199.94c-0.55,0-1.1-0.274-1.65-0.274l0,0
				c-1.65,0-3.025,0.55-4.401,1.65c0.275-2.476-0.275-4.676-0.825-6.051C200.821,196.641,203.296,198.291,205.496,199.94z
				 M196.145,204.066l-1.375,2.2h-8.526l1.925-4.4c0-0.275,0.275-0.55,0.275-0.825s0.275-0.275,0.275-0.55l0.275-0.551
				c1.65-3.575,5.775-4.4,7.425-4.675C197.245,196.915,198.345,201.041,196.145,204.066z M195.595,193.615
				c-1.375,0.275-3.576,0.825-5.5,2.2c0.275-1.65,0-3.301-0.825-4.676c-0.275-0.55-0.55-1.1-1.1-1.375
				C190.645,191.14,193.12,192.24,195.595,193.615z M187.619,192.24c1.1,1.925,0.825,4.4-0.275,7.426l-0.825,1.375
				c-0.825,1.925-1.65,3.575-2.475,4.95h-5.226c0.275-1.65,1.1-3.3,2.2-5.226c1.375-2.2,4.125-7.7,2.75-11.551c0,0,0,0,0-0.275
				C185.419,189.765,186.794,190.865,187.619,192.24z M157.091,183.164c0.825-0.55,1.65-0.825,2.476-0.55
				c0.55,0,0.825-0.275,1.1-0.551c0-0.274,0-0.55,0-0.824c6.875,1.1,13.477,3.025,19.802,5.226c-0.275,0-0.275,0.274-0.55,0.55
				c0,0.55,0.275,0.825,0.55,1.1c0.825,0.275,1.65,0.825,1.925,1.65c0.825,2.476-0.825,6.876-2.75,9.901
				c-1.375,2.2-2.2,4.4-2.476,6.051h-25.027c-0.275-0.825-0.825-1.376-1.65-1.926l0.275-0.274c2.475-1.926,3.575-5.501,3.575-10.727
				C154.616,189.489,155.166,185.089,157.091,183.164z M155.991,181.789L155.991,181.789c-3.301,2.75-3.576,9.076-3.301,11.551
				c0,4.676-0.825,7.701-2.75,9.352c-0.825,0.825-1.925,0.825-2.75,0.825h-0.275c0.275-1.376,0.55-4.951,1.1-13.752
				c0.275-3.575,1.375-6.051,3.3-7.426C152.966,181.789,154.616,181.514,155.991,181.789z M152.141,180.139
				c-0.55,0.275-1.1,0.275-1.65,0.825c-1.375,0.825-2.475,1.925-3.025,3.575c-0.825-2.2-2.475-3.851-3.575-4.676
				C146.64,179.863,149.39,179.863,152.141,180.139z M142.239,180.688c1.375,1.101,4.401,4.126,4.125,7.701l-1.375,14.852h-5.5
				l-1.1-12.651c0-0.275,0-0.55,0-0.825s0-0.275,0-0.55v-0.55C137.839,184.814,140.864,181.789,142.239,180.688z M140.589,179.863
				c-1.1,0.825-2.75,2.476-3.575,4.676c-0.825-1.65-1.65-2.75-3.025-3.575c-0.55-0.275-1.1-0.55-1.65-0.825
				C134.813,179.863,137.564,179.863,140.589,179.863z M132.889,182.614c1.925,1.1,3.025,3.3,3.3,6.601l0.275,1.65
				c0.55,7.976,0.825,11.275,1.1,12.651h-0.55c-0.825,0-1.65-0.275-2.75-0.825c-1.925-1.375-2.75-4.676-2.75-9.352
				c0-2.475-0.275-8.801-3.3-11.551l0,0C129.863,181.514,131.513,181.789,132.889,182.614z M102.085,190.04
				c0.275-0.825,0.825-1.375,1.925-1.65c0.55-0.275,0.825-0.55,0.55-1.101c0-0.274-0.275-0.55-0.55-0.55
				c6.326-2.475,12.927-4.125,19.802-5.226c0,0.275-0.275,0.55,0,0.825c0.275,0.55,0.55,0.825,1.1,0.55
				c1.1-0.274,1.925,0,2.475,0.551c1.925,1.649,2.75,6.325,2.75,9.9c0,5.226,1.1,8.801,3.575,10.727c0.275,0,0.275,0.274,0.55,0.274
				c-0.55,0.551-1.1,1.101-1.65,1.926h-25.027c-0.275-1.926-1.375-3.851-2.476-6.051C102.91,196.915,100.985,192.515,102.085,190.04
				z M100.16,189.215L100.16,189.215c-1.375,3.851,1.375,9.626,2.75,11.826c1.1,1.925,1.925,3.575,2.2,5.226h-5.226
				c-0.825-1.65-1.65-3.575-2.75-5.775c-1.65-3.301-1.925-6.051-0.825-7.977C97.41,190.865,98.785,189.765,100.16,189.215z
				 M96.035,189.765c-0.275,0.55-0.825,0.825-1.1,1.375c-0.825,1.375-1.1,3.025-0.825,4.676c-1.925-1.375-4.125-1.925-5.5-2.476
				C91.084,192.24,93.56,191.14,96.035,189.765z M87.784,195.266c1.65,0.274,5.776,1.375,7.426,4.675l2.75,6.051h-8.526
				l-0.275-0.274c-0.275-0.275-0.275-0.551-0.55-0.825c0-0.275-0.275-0.275-0.275-0.551l-0.275-0.55
				C85.858,201.041,87.234,196.915,87.784,195.266z M85.858,195.266c-0.55,1.375-1.1,3.575-0.825,5.775
				c-1.375-1.101-3.025-1.65-4.4-1.65c-0.55,0-1.1,0-1.65,0.275C81.183,198.291,83.383,196.641,85.858,195.266z M80.358,201.591
				C80.358,201.591,80.633,201.591,80.358,201.591c2.2,0,4.4,1.375,6.326,4.126l0.275,0.55h-6.05
				c-1.375-1.375-3.025-2.75-4.676-3.025c0,0,0,0-0.275,0C77.333,202.416,78.708,201.591,80.358,201.591z M58.355,219.743
				c-0.275-0.275-0.275-0.275-0.55-0.275c4.4-5.226,9.076-9.901,14.301-14.302c0,0.275,0,0.551,0.275,0.551
				c0.275,0.274,0.825,0.274,1.375,0c0.825-0.551,1.65-0.825,2.475-0.825c0.825,0.274,1.65,0.55,2.476,1.1c0.275,0,0.55,0,0.55,0
				c-2.75,0-4.951,2.2-4.951,4.951v13.476c0,2.751,2.2,4.951,4.951,4.951H95.76c0,1.1,0.55,2.475,1.375,3.575l24.478,35.754
				l-35.754-24.478c-1.65-1.101-3.3-1.65-4.95-1.375c-0.55,0-0.825,0.274-1.375,0.55c0-0.275,0-0.55,0-0.825
				c-0.275-1.375-1.1-2.2-2.2-3.025c-1.375-0.825-3.3-0.825-4.675-0.275c0-0.274,0-0.274,0-0.55
				c-0.275-3.025-3.025-5.775-7.426-8.525c-3.3-1.926-6.876-4.676-7.426-7.151c-0.275-0.825,0-1.649,0.825-2.475
				C58.631,220.568,58.631,220.018,58.355,219.743z M55.605,223.594C55.605,223.594,55.605,223.868,55.605,223.594
				c0.825,4.125,6.05,7.426,8.251,8.801c3.85,2.2,6.325,4.675,6.601,7.15c0.275,1.101-0.275,2.2-0.55,2.75l-0.275,0.275
				c-1.1-0.825-4.125-3.025-11.276-7.976c-3.025-2.2-4.675-4.4-4.675-6.601C53.955,226.344,54.78,224.969,55.605,223.594z
				 M52.305,226.344c0,0.55-0.275,1.1-0.275,1.65c0,1.649,0.55,3.025,1.65,4.4c-2.2-0.275-4.675,0.274-6.051,0.825
				C49.28,231.02,50.655,228.544,52.305,226.344z M46.254,236.245c0.275,1.375,0.825,3.575,2.2,5.5c-1.65-0.274-3.3,0-4.675,0.825
				c-0.55,0.275-1.1,0.55-1.375,1.101C43.504,240.92,44.879,238.72,46.254,236.245z M44.604,244.221
				c1.925-1.101,4.401-0.825,7.426,0.274l1.375,0.551c7.15,3.3,10.176,4.95,11.551,5.5l0,0c-0.275,0.551-1.1,1.65-2.201,1.926
				c-2.2,0.825-5.5,0.274-9.351-2.2c-1.925-1.101-6.051-3.301-9.351-3.301c-0.825,0-1.375,0-2.2,0.275c0,0,0,0-0.275,0
				C42.404,246.421,43.229,245.046,44.604,244.221z M39.104,251.371c0,0.275,0.275,0.275,0.55,0.55c0.55,0,0.825-0.274,1.1-0.55
				c0.275-0.825,0.825-1.65,1.65-1.925c2.476-0.825,6.876,0.825,9.901,2.75c3.3,1.925,6.05,2.75,8.25,2.75
				c1.1,0,1.925-0.274,2.75-0.55c0.275,0,0.275-0.275,0.55-0.275c0,1.65,1.1,3.025,2.475,3.851c0.825,0.551,1.65,0.551,2.475,0.551
				s1.375-0.275,1.925-0.551c0,0.551,0,0.825,0.275,1.375c0.55,1.65,1.65,2.751,3.576,3.576l39.054,18.701l-43.18-3.3
				c-2.2-0.275-3.851,0.275-4.951,1.375c-0.275,0.275-0.55,0.55-0.825,1.101c-0.825-1.101-2.2-1.926-3.85-1.926
				c-1.65,0-3.3,0.825-4.125,2.2l-0.275-0.274c-1.925-2.476-5.501-3.576-10.727-3.576c-3.85,0-8.25-0.55-9.901-2.75
				c-0.55-0.825-0.825-1.65-0.55-2.476c0-0.55-0.275-0.824-0.55-1.1c-0.275,0-0.55,0-0.825,0
				C34.978,264.298,36.628,257.697,39.104,251.371z M63.856,284.1v0.55v10.176v0.551c0,1.65-1.375,3.025-3.025,3.025
				c-1.65,0-3.025-1.375-3.025-3.025V284.1c0-1.65,1.375-3.025,3.025-3.025C62.756,281.074,63.856,282.449,63.856,284.1z
				 M41.579,295.651l1.65-0.275c7.976-0.551,11.276-0.825,12.651-1.101v0.275c0,0.825-0.275,1.649-0.825,2.476
				c-1.375,1.925-4.675,2.75-9.351,2.75c-2.475,0-8.801,0.275-11.551,3.3l0,0c-0.275-1.375,0-3.024,0.825-4.675
				C36.078,297.026,38.278,295.926,41.579,295.651z M33.328,289.601c1.1-1.375,4.125-4.4,7.701-4.126l14.852,1.375v5.501
				l-12.651,1.1c-0.275,0-0.55,0-0.825,0c-0.275,0-0.275,0-0.55,0h-0.55C37.454,294.001,34.428,290.976,33.328,289.601z
				 M42.404,283.824c-3.575-0.274-6.05-1.375-7.426-3.3c-0.825-1.375-0.825-3.025-0.825-4.676l0,0
				c2.475,3.025,8.801,3.301,11.551,3.301c4.676,0,7.701,0.825,9.351,2.75c0.825,0.825,0.825,1.925,0.825,2.75v0.275
				C54.505,284.649,50.93,284.375,42.404,283.824z M32.778,279.699c0.275,0.55,0.275,1.101,0.825,1.65
				c0.825,1.375,1.925,2.475,3.575,3.025c-2.2,0.825-3.85,2.475-4.675,3.575C32.228,285.2,32.503,282.449,32.778,279.699z
				 M32.778,299.776c-0.275-2.75-0.275-5.501-0.55-8.251c0.825,1.101,2.475,2.75,4.675,3.575c-1.65,0.825-2.75,1.65-3.575,3.025
				C33.053,298.676,32.778,299.226,32.778,299.776z M40.754,328.104c-0.275-0.551-0.55-0.825-1.1-0.551
				c-0.275,0-0.55,0.275-0.55,0.551c-2.475-6.326-4.125-12.927-5.226-19.803c0.275,0,0.275,0,0.55,0h0.275
				c0.55-0.274,0.825-0.55,0.55-1.1c-0.275-1.101,0-1.926,0.55-2.476c1.65-1.925,6.326-2.75,9.901-2.75
				c5.226,0,8.801-1.101,10.727-3.575c0-0.275,0.275-0.275,0.275-0.551c0.825,1.375,2.475,2.201,4.125,2.201
				c1.65,0,3.025-0.826,3.85-1.926c0.275,0.275,0.55,0.825,0.825,1.1c1.1,0.826,2.475,1.375,4.125,1.375c0.275,0,0.55,0,0.825,0
				l15.677-1.1c0.55,0.275,1.1,0.825,1.375,1.1c2.2,1.376,4.675,3.026,6.326,6.326l-19.527,9.352
				c-1.925,0.824-3.025,2.2-3.575,3.575c0.275,0.274,0.275,0.55,0.275,1.1c-0.275,0-0.55-0.274-0.825-0.274
				c-1.375-0.275-2.475-0.275-3.85,0.55c-1.1,0.55-1.925,1.65-2.2,3.025c0,0.274,0,0.55-0.275,0.825
				c-0.275,0-0.275-0.275-0.55-0.275c-2.75-1.1-6.601-0.275-11.001,2.2c-3.3,1.926-7.426,3.575-9.901,2.75
				C41.579,329.479,41.029,328.93,40.754,328.104z M41.854,331.68c3.85,1.375,9.351-1.65,11.551-2.75c3.85-2.2,7.15-3.025,9.351-2.2
				c1.101,0.55,1.925,1.375,2.201,1.925l0,0c-1.375,0.55-4.676,2.2-12.376,5.775c-3.3,1.65-6.051,1.926-7.976,0.825
				C43.229,334.43,42.404,333.055,41.854,331.68L41.854,331.68z M42.404,335.805c0.55,0.275,0.825,0.825,1.375,1.101
				c1.1,0.55,2.475,0.825,3.85,0.825c0.275,0,0.55,0,0.825,0c-1.375,1.925-2.2,4.125-2.475,5.5
				C44.879,340.756,43.504,338.28,42.404,335.805z M52.305,352.856c-1.65-2.2-3.025-4.4-4.401-6.875
				c1.101,0.274,2.75,0.824,4.676,0.824c0.55,0,0.825,0,1.375,0c-1.1,1.376-1.65,3.025-1.65,4.401
				C52.03,351.757,52.305,352.307,52.305,352.856z M55.605,355.607c-0.825-1.101-1.65-2.751-1.65-4.4
				c0-2.201,1.375-4.126,4.125-6.326l1.375-1.1c6.601-4.401,9.351-6.326,10.451-7.426l0.275,0.274c0.275,0.55,0.55,1.65,0.55,2.75
				c-0.275,2.476-2.475,4.951-6.601,7.151C61.656,348.182,56.431,351.481,55.605,355.607L55.605,355.607z M73.482,373.484
				c-0.275-0.275-0.825-0.275-1.375,0c-0.275,0.274-0.275,0.274-0.275,0.55c-5.226-4.4-9.901-9.076-14.301-14.302
				c0.275,0,0.55,0,0.55-0.275c0.275-0.274,0.275-0.824,0-1.375c-0.55-0.825-0.825-1.649-0.825-2.475
				c0.55-2.476,4.125-5.501,7.426-7.151c4.676-2.475,7.151-5.5,7.426-8.525c0-0.275,0-0.275,0-0.551
				c0.55,0.275,1.375,0.551,2.2,0.551c0.825,0,1.65-0.275,2.476-0.551c1.375-0.824,2.2-2.2,2.475-3.85
				c0.275,0.274,0.825,0.274,1.375,0.55c0.275,0,0.825,0,1.1,0c1.375,0,2.476-0.55,3.851-1.375l13.751-9.352l0,0
				c0.825,4.126,2.2,7.426,4.675,10.451l-7.15,10.451c-1.1,1.65-1.375,3.301-1.1,4.951c0,0.55,0.275,0.824,0.55,1.375
				c-1.375,0.274-3.025,1.1-3.851,2.475c-0.55,1.101-0.825,2.476-0.55,3.851c0,0.275,0.275,0.55,0.275,0.825
				c-0.275,0-0.275,0-0.55,0c-3.025,0.275-5.776,3.025-8.526,7.426c-1.925,3.301-4.676,6.876-7.151,7.426
				C75.132,374.584,74.307,374.309,73.482,373.484z M76.232,376.234c3.851-0.825,7.426-6.051,8.526-8.251
				c2.2-3.851,4.676-6.326,7.151-6.601c1.1-0.275,2.2,0.274,2.75,0.55l0.275,0.275c-0.825,1.1-3.025,4.125-7.976,11.276
				c-2.2,3.024-4.4,4.675-6.601,4.675C78.983,377.885,77.333,377.06,76.232,376.234L76.232,376.234z M78.983,379.534
				c0.55,0,1.1,0.275,1.65,0.275l0,0c1.65,0,3.025-0.55,4.4-1.65c-0.275,2.476,0.275,4.676,0.825,6.051
				C83.383,382.56,81.183,381.185,78.983,379.534z M88.059,375.134l8.526-12.101l4.951,2.75l-5.5,11.551
				c0,0.275-0.275,0.551-0.275,0.825c0,0.275-0.275,0.275-0.275,0.55l-0.275,0.551c-1.65,3.575-5.775,4.4-7.426,4.675
				C87.234,382.285,85.858,378.159,88.059,375.134z M88.609,385.585c1.375-0.274,3.575-0.825,5.5-2.2
				c-0.275,1.65,0,3.301,0.825,4.676c0.275,0.55,0.55,1.1,1.1,1.375C93.56,388.336,91.084,386.96,88.609,385.585z M96.584,387.235
				c-1.1-1.925-0.825-4.4,0.55-7.426l0.55-1.375c3.301-7.15,4.951-10.176,5.501-11.552l0,0c0.55,0.275,1.65,1.101,1.925,2.2
				c0.825,2.201,0.275,5.501-2.2,9.352c-1.375,2.2-4.125,7.976-2.75,11.551c0,0,0,0,0,0.275
				C98.785,389.436,97.41,388.61,96.584,387.235z M124.638,396.586c-0.55,0-0.825,0.275-1.1,0.551c0,0.274,0,0.55,0,0.825
				c-6.876-1.101-13.477-3.025-19.802-5.226c0.275,0,0.275-0.275,0.55-0.551c0-0.55-0.275-0.825-0.55-1.1
				c-0.825-0.275-1.65-0.825-1.925-1.65c-0.825-2.476,0.825-6.876,2.75-9.901c2.75-4.675,3.575-8.25,2.2-11.001
				c0-0.274-0.275-0.274-0.275-0.55c1.65,0,3.025-1.101,3.85-2.476c0.825-1.375,0.825-3.025,0.275-4.4c0.55,0,0.825,0,1.375-0.274
				c1.65-0.551,2.75-1.65,3.575-3.576l1.375-3.025c0.55,0.551,1.375,1.101,2.2,1.376v3.3c0,0.275,0,0.275,0,0.55
				c-2.75,1.101-5.776,3.301-7.151,7.701c-0.275,0.825-0.55,2.2-0.55,3.851c-0.275,2.476-0.55,5.775-2.2,6.601
				c-0.55,0.275-0.825,0.275-1.65,0c-0.55-0.275-0.825-0.275-0.825-0.275c-0.55-0.274-1.1,0-1.1,0.551c-0.275,0.55,0,1.1,0.55,1.1
				c0.275,0.275,0.55,0.275,1.1,0.275c0.275,0,0.825,0.274,1.375,0.274c-2.2,0-4.125,1.926-4.125,4.4c0,2.476,1.925,4.401,4.4,4.401
				h20.627c-0.275,3.3-0.825,6.601-2.475,7.976C126.563,396.586,125.738,396.861,124.638,396.586z M128.213,397.687
				C128.213,397.411,128.488,397.411,128.213,397.687c2.476-2.2,3.3-6.326,3.3-9.351h4.676c0,0.55,0,0.824,0,1.375
				c-0.275,3.575-1.375,6.051-3.3,7.426C131.513,397.687,129.588,397.687,128.213,397.687z M132.063,399.062
				c0.55-0.275,1.1-0.275,1.65-0.825c1.375-0.825,2.476-1.925,3.025-3.575c0.825,2.2,2.476,3.851,3.576,4.676
				C137.564,399.611,134.813,399.337,132.063,399.062z M142.239,398.512c-1.375-1.101-4.4-4.126-4.125-7.701l0.275-2.475h7.701v0.55
				c0,0.274,0,0.55,0,0.825c0,0.274,0,0.274,0,0.55v0.55C146.64,394.386,143.34,397.411,142.239,398.512z M143.89,399.611
				c1.1-0.825,2.75-2.475,3.575-4.675c0.825,1.649,1.65,2.75,3.025,3.575c0.55,0.274,1.1,0.55,1.65,0.825
				C149.39,399.337,146.64,399.611,143.89,399.611z M151.59,396.861c-1.925-1.1-3.025-3.3-3.3-6.601l-0.275-1.65v-0.274h4.675
				c0.275,3.024,0.825,7.426,3.301,9.351l0,0C154.616,397.687,152.966,397.687,151.59,396.861z M182.394,389.16
				c-0.275,0.825-0.825,1.376-1.925,1.65c-0.55,0.275-0.825,0.55-0.55,1.101c0,0.274,0.275,0.55,0.55,0.55
				c-6.326,2.476-12.927,4.125-19.802,5.226c0-0.275,0.275-0.55,0-0.825c-0.275-0.55-0.55-0.825-1.1-0.55
				c-1.1,0.274-1.925,0-2.476-0.55c-1.65-1.376-2.475-4.676-2.475-7.977h20.902c2.475,0,4.4-1.925,4.4-4.4l0,0
				c0-2.2-1.925-4.125-4.125-4.4c0.55,0,1.1-0.274,1.375-0.274c0.275,0,0.55-0.275,1.1-0.275c0.55-0.275,0.825-0.825,0.55-1.101
				c-0.275-0.55-0.825-0.825-1.1-0.55c0,0-0.275,0-0.825,0.275c-0.55,0.274-1.1,0-1.65,0c-1.375-0.825-1.925-4.126-2.2-6.601
				c-0.275-1.376-0.275-2.751-0.55-3.851c-1.375-4.126-4.4-6.326-7.151-7.701c0-0.274,0.275-0.274,0.275-0.55v-3.301
				c1.1,0,1.925-0.55,2.475-0.825l1.1,2.476c0.825,1.926,2.2,3.025,3.575,3.575c0.55,0.275,0.825,0.275,1.375,0.275
				c0,0.275-0.275,0.55-0.275,0.825c-0.275,1.375-0.275,2.476,0.55,3.851s2.475,2.2,3.851,2.475c0,0.275-0.275,0.275-0.275,0.551
				c-1.1,2.75-0.275,6.601,2.2,11.001C181.569,382.56,183.219,386.96,182.394,389.16z M184.044,389.985L184.044,389.985
				c1.375-3.85-1.375-9.626-2.75-11.826c-2.2-3.851-3.025-7.15-2.2-9.351c0.55-1.101,1.375-1.926,1.925-2.2l0,0
				c0.55,1.375,2.2,4.675,5.775,12.376c1.65,3.301,1.925,6.051,0.825,7.976C186.794,388.61,185.419,389.436,184.044,389.985z
				 M188.169,389.436c0.275-0.55,0.825-0.825,1.1-1.375c0.825-1.375,1.1-3.025,0.825-4.676c1.925,1.375,4.125,1.926,5.5,2.476
				C193.395,386.96,190.919,388.336,188.169,389.436z M196.695,383.935c-1.65-0.274-5.776-1.375-7.426-4.675l-6.326-13.477
				l4.951-2.75l7.426,10.451c0.275,0.274,0.275,0.55,0.55,0.824c0,0.275,0.275,0.275,0.275,0.551l0.275,0.55
				C198.345,378.159,197.245,382.285,196.695,383.935z M198.621,383.935c0.55-1.375,1.1-3.575,0.825-5.775
				c1.375,1.101,3.025,1.65,4.401,1.65l0,0c0.55,0,1.1,0,1.65-0.275C203.296,381.185,200.821,382.56,198.621,383.935z
				 M203.846,377.885c-2.201,0-4.125-1.376-6.326-4.126l-0.825-1.375c-4.4-6.601-6.326-9.351-7.426-10.451l0.275-0.275
				c0.55-0.274,1.65-0.55,2.75-0.55c2.475,0.275,4.95,2.476,7.15,6.601c1.375,2.2,4.676,7.701,8.526,8.251c0,0,0,0,0.275,0
				C206.871,377.06,205.496,377.885,203.846,377.885z M212.372,374.309c0-0.274,0-0.55-0.275-0.55c-0.275-0.274-0.825-0.274-1.375,0
				c-0.825,0.55-1.65,0.825-2.475,0.825c-2.476-0.55-5.5-4.125-7.151-7.426c-2.475-4.676-5.5-7.15-8.526-7.426
				c-0.275,0-0.275,0-0.55,0c0-0.275,0.275-0.55,0.275-0.825c0.275-1.375,0.275-2.475-0.55-3.851c-0.825-1.375-2.2-2.2-3.85-2.475
				c0.275-0.275,0.275-0.825,0.55-1.375c0.275-1.65,0-3.301-1.375-4.951l-6.876-10.176c2.476-2.75,3.851-6.326,4.676-10.451
				l13.751,9.351c1.375,0.825,2.75,1.376,3.85,1.376c0.275,0,0.825,0,1.1,0c0.55,0,0.825-0.275,1.375-0.551c0,0.275,0,0.551,0,0.825
				c0.275,1.375,1.1,2.2,2.2,3.025c0.825,0.55,1.65,0.55,2.475,0.55s1.375-0.274,2.2-0.55c0,0.275,0,0.275,0,0.55
				c0.275,3.025,3.025,5.776,7.426,8.526c3.3,1.925,6.876,4.676,7.426,7.15c0.275,0.825,0,1.65-0.825,2.476
				c-0.275,0.275-0.275,0.825,0,1.375c0.275,0.275,0.275,0.275,0.55,0.275C222.273,364.958,217.598,369.908,212.372,374.309z"/>
		</g>
	</g>
	<g display="none">
		<path display="inline" fill="#C3002F" d="M281.729,218.176h41.085v8.991h-15.078v45.374h-10.652v-45.374h-7.262
			c-3.413,0-5.718,1.822-6.917,5.464h-1.176V218.176z"/>
		<path display="inline" fill="#C3002F" d="M327.033,217.968h16.254v21.511h20.335v-21.511h10.721v54.572h-10.721v-23.24h-20.335
			v23.24H332.29v-0.553v-47.656c0-1.89-1.753-3.528-5.257-4.911V217.968z"/>
		<path display="inline" fill="#C3002F" d="M387.484,218.106h20.543l15.285,54.365H412.66l-2.904-11.551h-16.739l-2.905,11.551
			h-10.721l13.625-48.001c-0.461-2.352-2.306-3.988-5.533-4.911V218.106z M401.387,229.657l-5.81,22.271h11.896l-5.809-22.271
			H401.387z"/>
		<path display="inline" fill="#C3002F" d="M426.425,218.176h20.611l10.168,36.866h0.276l10.168-36.866h15.078v54.019v0.553h-9.545
			v-0.553v-40.394h-0.346l-11.897,40.947h-7.193l-7.607-25.522c-1.153-3.135-2.606-8.276-4.358-15.424h-0.276v40.394v0.553h-9.545
			v-0.553v-47.033c0-2.49-1.845-4.427-5.533-5.81V218.176z"/>
		<path display="inline" fill="#C3002F" d="M487.429,218.176h20.611l10.168,36.866h0.276l10.168-36.866h15.078v54.019v0.553h-9.545
			v-0.553v-40.394h-0.346l-11.897,40.947h-7.193l-7.607-25.522c-1.153-3.135-2.606-8.276-4.358-15.424h-0.276v40.394v0.553h-9.545
			v-0.553v-47.033c0-2.49-1.845-4.427-5.533-5.81V218.176z"/>
		<path display="inline" fill="#C3002F" d="M557.562,218.106h20.543l15.285,54.365h-10.651l-2.905-11.551h-16.738l-2.905,11.551
			h-10.721l13.626-48.001c-0.461-2.352-2.306-3.988-5.533-4.911V218.106z M571.464,229.657l-5.81,22.271h11.896l-5.81-22.271
			H571.464z"/>
		<path display="inline" fill="#C3002F" d="M614.971,218.383h1.729c6.641,0,12.012,1.499,16.116,4.496v9.891
			c-5.165-3.918-10.998-5.879-17.499-5.879c-5.118,0.6-7.678,2.19-7.678,4.772v0.277c0,2.675,3.02,4.841,9.061,6.501
			c12.634,4.427,18.952,10.375,18.952,17.845c0,8.023-3.873,13.21-11.62,15.563c-3.09,0.738-5.811,1.106-8.162,1.106
			c-6.086,0-11.758-2.352-17.015-7.055l-0.276-0.553v-11.343c5.81,6.595,11.665,9.891,17.568,9.891h1.106
			c3.78,0,6.433-1.498,7.954-4.496l0.276-2.006v-1.383c0-3.227-5.856-6.917-17.568-11.067c-6.963-3.503-10.444-7.93-10.444-13.28
			c0-5.994,3.966-10.237,11.897-12.727C611.258,218.568,613.126,218.383,614.971,218.383z"/>
		<path display="inline" fill="#C3002F" d="M647.339,218.106h20.543l15.285,54.365h-10.651l-2.905-11.551h-16.738l-2.905,11.551
			h-10.721l13.626-48.001c-0.461-2.352-2.306-3.988-5.533-4.911V218.106z M661.241,229.657l-5.81,22.271h11.896l-5.81-22.271
			H661.241z"/>
		<path display="inline" fill="#C3002F" d="M687.179,218.176h41.085v8.991h-15.079v45.374h-10.651v-45.374h-7.263
			c-3.412,0-5.718,1.822-6.916,5.464h-1.176V218.176z"/>
		<path display="inline" fill="#C3002F" d="M756.689,218.867h16.047v34.652c0,4.565,1.337,7.747,4.012,9.545
			c2.028,0.876,4.126,1.314,6.294,1.314c5.349,0,8.484-2.49,9.407-7.47c0.184-1.66,0.276-3.088,0.276-4.288v-33.753h10.582v34.03
			c0,9.684-3.988,16.071-11.966,19.159c-2.397,0.784-4.888,1.176-7.47,1.176h-2.282c-10.651,0-17.039-5.257-19.159-15.77
			c-0.185-1.245-0.276-2.466-0.276-3.666v-26.629c0.138-3.55-1.685-5.833-5.465-6.847V218.867z"/>
		<path display="inline" fill="#C3002F" d="M807.389,217.968h16.255l20.888,35.966h0.276v-35.413v-0.553h10.444v54.572h-10.098
			l-21.788-37.765h-0.276v37.765h-10.168v-46.134c0.139-3.412-1.706-5.741-5.533-6.986V217.968z"/>
		<path display="inline" fill="#C3002F" d="M860.854,217.899h16.53v54.365h-10.928v-47.448c0-2.443-1.868-4.265-5.603-5.464V217.899
			z"/>
		<path display="inline" fill="#C3002F" d="M880.912,218.383h14.041l4.634,18.191l4.911,20.542h0.553l9.545-38.733h10.375
			l-14.109,54.365h-11.896l-13.557-50.284c-0.924-1.706-2.421-2.697-4.496-2.974V218.383z"/>
		<path display="inline" fill="#C3002F" d="M930.436,218.176h41.776v9.268h-0.554h-24.969v12.243h17.983l0.622,0.069v9.199h-0.622
			h-17.983v14.525h26.145v9.269h-36.865v-46.134c0.138-3.918-1.707-6.248-5.533-6.986V218.176z"/>
		<path display="inline" fill="#C3002F" d="M976.016,217.968h28.289c7.747,0,13.004,3.205,15.771,9.614
			c0.691,1.753,1.082,3.989,1.176,6.709c0,6.917-3.298,11.597-9.892,14.041l11.966,24.208h-12.312l-10.167-21.856h-8.508v21.856
			h-10.79V224.4c0.184-2.49-1.66-4.242-5.533-5.256V217.968z M992.339,226.752v14.871h8.162c6.455,0,9.683-2.051,9.683-6.156v-2.352
			c0-4.242-3.412-6.363-10.236-6.363H992.339z"/>
		<path display="inline" fill="#C3002F" d="M1044.283,218.383h1.729c6.641,0,12.012,1.499,16.116,4.496v9.891
			c-5.165-3.918-10.998-5.879-17.499-5.879c-5.118,0.6-7.678,2.19-7.678,4.772v0.277c0,2.675,3.02,4.841,9.061,6.501
			c12.634,4.427,18.952,10.375,18.952,17.845c0,8.023-3.873,13.21-11.62,15.563c-3.09,0.738-5.811,1.106-8.162,1.106
			c-6.086,0-11.758-2.352-17.015-7.055l-0.276-0.553v-11.343c5.81,6.595,11.665,9.891,17.568,9.891h1.106
			c3.78,0,6.433-1.498,7.954-4.496l0.276-2.006v-1.383c0-3.227-5.856-6.917-17.568-11.067c-6.963-3.503-10.444-7.93-10.444-13.28
			c0-5.994,3.966-10.237,11.897-12.727C1040.57,218.568,1042.438,218.383,1044.283,218.383z"/>
		<path display="inline" fill="#C3002F" d="M1069.251,217.899h16.53v54.365h-10.928v-47.448c0-2.443-1.868-4.265-5.603-5.464
			V217.899z"/>
		<path display="inline" fill="#C3002F" d="M1090.554,218.176h41.085v8.991h-15.079v45.374h-10.651v-45.374h-7.263
			c-3.412,0-5.718,1.822-6.916,5.464h-1.176V218.176z"/>
		<path display="inline" fill="#C3002F" d="M1134.82,218.452h14.525c5.948,13.695,8.922,20.705,8.922,21.027h0.277l8.922-21.027
			h10.929l-14.663,32.993v21.096h-10.652v-21.027c0-0.415-2.489-5.971-7.47-16.669c-4.611-9.729-8.208-14.802-10.79-15.217V218.452z
			"/>
	</g>
	<g display="none">
		<path display="inline" fill="#FFC000" d="M311.844,313.606c14.42,0,23.403,7.811,26.952,23.432
			c0.457,3.549,0.687,6.495,0.687,8.841v4.292c0,15.336-5.78,25.492-17.338,30.471c-3.72,0.974-7.038,1.459-9.957,1.459h-1.03
			c-12.991,0-21.516-6.38-25.579-19.141c-0.974-2.803-1.688-7.781-2.146-14.935c0-17.167,6.037-28.153,18.111-32.96
			C306.064,314.093,309.497,313.606,311.844,313.606z M296.909,348.368c0,14.936,5.207,22.403,15.622,22.403
			c5.837,0,9.985-3.662,12.446-10.987c0.687-3.317,1.03-6.294,1.03-8.927v-6.352c0-8.812-2.719-14.849-8.154-18.11
			c-2.118-0.743-3.549-1.116-4.292-1.116h-3.176C301.401,325.279,296.909,332.977,296.909,348.368z"/>
		<path display="inline" fill="#FFC000" d="M342.313,314.894h29.613c16.937,0,25.406,6.781,25.406,20.343
			c0,13.333-7.982,19.999-23.947,19.999h-11.073v26.78h-13.562V322.79c-0.058-2.803-2.204-4.835-6.438-6.094V314.894z
			 M362.313,326.31v17.854h8.583c8.583,0,12.875-2.747,12.875-8.24v-1.03c0-5.722-3.12-8.583-9.356-8.583H362.313z"/>
		<path display="inline" fill="#FFC000" d="M405.486,314.722h51.843v11.502h-0.687h-30.986v15.192h22.317l0.772,0.086v11.416h-0.772
			h-22.317v18.024h32.445v11.502h-45.75v-57.251c0.172-4.863-2.118-7.753-6.866-8.669V314.722z"/>
		<path display="inline" fill="#FFC000" d="M462.908,314.464h20.171L509,359.098h0.343v-43.946v-0.688h12.961v67.723h-12.532
			l-27.037-46.864h-0.344v46.864h-12.617v-57.251c0.171-4.233-2.118-7.124-6.867-8.669V314.464z"/>
		<path display="inline" fill="#00C6BB" d="M585.647,314.55c10.7,0,18.081,4.751,22.146,14.249c0,0.63,0.343,1.945,1.029,3.948
			c-7.21,1.888-11.359,2.832-12.445,2.832v-0.343c-2.176-5.951-5.867-8.927-11.073-8.927h-1.803
			c-6.695,0-10.615,6.667-11.759,19.999v3.176c0,14.992,4.635,22.488,13.905,22.488c5.322,0,9.355-3.318,12.103-9.957
			c7.781,2.118,11.959,3.176,12.531,3.176c-4.119,12.133-12.218,18.197-24.291,18.197h-0.687c-12.761,0-21.201-6.552-25.321-19.656
			c-1.202-4.807-1.803-9.785-1.803-14.935c0-17.224,5.951-28.153,17.854-32.788C579.753,315.037,582.957,314.55,585.647,314.55z"/>
		<path display="inline" fill="#00C6BB" d="M642.898,313.606c14.42,0,23.402,7.811,26.951,23.432
			c0.457,3.549,0.687,6.495,0.687,8.841v4.292c0,15.336-5.78,25.492-17.339,30.471c-3.72,0.974-7.037,1.459-9.956,1.459h-1.03
			c-12.99,0-21.516-6.38-25.578-19.141c-0.974-2.803-1.688-7.781-2.146-14.935c0-17.167,6.037-28.153,18.111-32.96
			C637.117,314.093,640.551,313.606,642.898,313.606z M627.963,348.368c0,14.936,5.207,22.403,15.621,22.403
			c5.838,0,9.985-3.662,12.446-10.987c0.687-3.317,1.03-6.294,1.03-8.927v-6.352c0-8.812-2.719-14.849-8.154-18.11
			c-2.117-0.743-3.549-1.116-4.291-1.116h-3.177C632.455,325.279,627.963,332.977,627.963,348.368z"/>
		<path display="inline" fill="#00C6BB" d="M674.396,315.58h19.914v43.003c0,5.665,1.658,9.613,4.978,11.845
			c2.518,1.088,5.121,1.631,7.812,1.631c6.637,0,10.527-3.09,11.673-9.271c0.229-2.06,0.344-3.833,0.344-5.321V315.58h13.132v42.23
			c0,12.017-4.95,19.942-14.849,23.775c-2.977,0.973-6.066,1.459-9.271,1.459h-2.832c-13.219,0-21.145-6.523-23.776-19.569
			c-0.229-1.546-0.343-3.061-0.343-4.55V325.88c0.172-4.405-2.09-7.238-6.781-8.497V315.58z"/>
		<path display="inline" fill="#00C6BB" d="M736.454,314.464h35.105c9.613,0,16.137,3.979,19.57,11.932
			c0.858,2.175,1.344,4.95,1.459,8.325c0,8.584-4.092,14.393-12.274,17.425l14.85,30.041h-15.278l-12.617-27.123h-10.558v27.123
			H743.32v-59.739c0.229-3.091-2.06-5.265-6.866-6.523V314.464z M756.711,325.365v18.454h10.128c8.011,0,12.017-2.546,12.017-7.64
			v-2.918c0-5.264-4.235-7.896-12.703-7.896H756.711z"/>
		<path display="inline" fill="#00C6BB" d="M821.171,314.979h2.146c8.239,0,14.905,1.86,19.999,5.579v12.274
			c-6.409-4.863-13.647-7.296-21.716-7.296c-6.352,0.744-9.527,2.718-9.527,5.922v0.344c0,3.319,3.747,6.008,11.244,8.068
			c15.678,5.493,23.518,12.875,23.518,22.145c0,9.957-4.807,16.395-14.42,19.313c-3.834,0.916-7.21,1.374-10.128,1.374
			c-7.554,0-14.592-2.919-21.115-8.755l-0.343-0.688v-14.076c7.21,8.184,14.476,12.274,21.801,12.274h1.374
			c4.691,0,7.982-1.859,9.87-5.579l0.344-2.489v-1.717c0-4.005-7.268-8.584-21.802-13.733c-8.641-4.348-12.961-9.842-12.961-16.48
			c0-7.438,4.921-12.703,14.764-15.793C816.564,315.209,818.882,314.979,821.171,314.979z"/>
		<path display="inline" fill="#00C6BB" d="M853.187,314.722h51.843v11.502h-0.687h-30.985v15.192h22.316l0.772,0.086v11.416h-0.772
			h-22.316v18.024h32.444v11.502h-45.749v-57.251c0.172-4.863-2.117-7.753-6.866-8.669V314.722z"/>
		<path display="inline" fill="#00C6BB" d="M910.78,314.722h18.024l7.897,42.831h0.343l9.013-42.831h13.733l8.24,42.831h0.343
			l8.669-42.831h12.961l-14.076,67.723h-0.687h-12.188l-5.064-22.316l-4.721-23.09h-0.687l-9.099,45.406h-0.601h-12.274
			l-3.948-16.565l-9.785-45.063c-1.431-2.518-3.463-3.949-6.094-4.292V314.722z"/>
		<path display="inline" fill="#00C6BB" d="M1005.11,314.636h25.492l18.969,67.465h-13.218l-3.605-14.334h-20.771l-3.604,14.334
			h-13.305l16.909-59.568c-0.572-2.918-2.862-4.948-6.866-6.094V314.636z M1022.362,328.97l-7.21,27.639h14.764l-7.21-27.639
			H1022.362z"/>
		<path display="inline" fill="#00C6BB" d="M1052.404,314.464h35.105c9.613,0,16.137,3.979,19.57,11.932
			c0.858,2.175,1.344,4.95,1.459,8.325c0,8.584-4.092,14.393-12.274,17.425l14.85,30.041h-15.278l-12.617-27.123h-10.558v27.123
			h-13.391v-59.739c0.229-3.091-2.06-5.265-6.866-6.523V314.464z M1072.661,325.365v18.454h10.128c8.011,0,12.017-2.546,12.017-7.64
			v-2.918c0-5.264-4.235-7.896-12.703-7.896H1072.661z"/>
		<path display="inline" fill="#00C6BB" d="M1117.38,314.722h51.843v11.502h-0.687h-30.985v15.192h22.316l0.772,0.086v11.416h-0.772
			h-22.316v18.024h32.444v11.502h-45.749v-57.251c0.172-4.863-2.117-7.753-6.866-8.669V314.722z"/>
	</g>
</g>
<g id="_x32_80x250">
	<g>
		<path fill="#C3002F" d="M297.34,228.54h1.68c8.36,0,13.959,3.92,16.8,11.76c1.12,3.24,1.68,6.921,1.68,11.04v1.2
			c0,15.681-6.561,23.52-19.68,23.52c-3.84,0-8.08-1.359-12.72-4.08v-9.6h0.24c3.48,3.84,7.56,5.76,12.24,5.76h1.44
			c4.28,0,7.32-2.64,9.12-7.92c0.48-2.52,0.72-4.599,0.72-6.24v-3.6c0-7.959-2.88-12.6-8.64-13.92h-3.36
			c-3.681,0-7.521,1.84-11.52,5.52h-0.24v-9.12C288.94,229.979,293.02,228.54,297.34,228.54z"/>
		<path fill="#C3002F" d="M285.039,218.939h31.5v6.54h-35.52L285.039,218.939z"/>
		<path fill="#C3002F" d="M349.299,228.779c6.439,0,10.68,2.8,12.72,8.4c0.64,2.081,0.96,4.96,0.96,8.64v30h-8.64v-31.92
			c0-4.8-2-7.2-6-7.2h-1.2c-4.56,0-8.16,2.721-10.8,8.16c-0.16,0.88-0.24,1.6-0.24,2.16v28.8h-8.64v-40.08
			c0-2.24-1.521-3.919-4.56-5.04v-1.2h13.2v4.32C339.738,230.459,344.139,228.779,349.299,228.779z"/>
		<path fill="#C3002F" d="M386.978,229.739h1.68c1.599,0,3.2,0.161,4.8,0.48v7.92l-1.68-0.48l-1.68-0.12
			c-4.641,0.081-6.98,1.48-7.02,4.2c-0.041,2.721,1.34,4.08,4.14,4.08h3.6c0.36,0,1.479,2.48,3.36,7.44
			c-2-0.159-3.041-0.24-3.12-0.24c-5.32,0.44-8.56,3.04-9.72,7.8v0.66c0.24,4.92,3.32,7.38,9.24,7.38h10.32v-38.88h8.64v6.96v39.6
			h-19.2c-11.52,0-17.28-4.959-17.28-14.88c0-4.92,1.92-8.679,5.76-11.28c-3.36-2.6-5.04-5.24-5.04-7.92v-1.92
			c0-4.8,2.959-8.24,8.88-10.32C384.257,229.9,385.697,229.739,386.978,229.739z"/>
		<path fill="#C3002F" d="M427.837,228.959c10.76,0,16.14,5.2,16.14,15.6v31.8h-8.52v-30.42c0-4.12-0.82-6.759-2.46-7.92
			c-1.8-0.76-3.34-1.14-4.62-1.14h-1.92c-2.721,0-5.64,1.101-8.76,3.3h-0.3v-8.22C420.197,229.959,423.677,228.959,427.837,228.959z
			"/>
		<path fill="#C3002F" d="M473.138,228.839c9.039,0,14.959,3.12,17.76,9.36c0.48,1.721,0.72,3.4,0.72,5.04v26.88
			c0,2.081,1.04,3.6,3.12,4.56v1.2h-7.2c-2.48,0-3.92-2.319-4.319-6.96v-16.56c-2.88,1.08-8.561,2.121-17.041,3.12
			c-3.68,1.161-5.52,3.561-5.52,7.2c0,2.961,1.6,4.881,4.8,5.76c0.68,0,1.56,0.081,2.64,0.24c2.6-0.159,5.319-0.56,8.16-1.2v8.16
			c-2.08,0.321-4.8,0.561-8.16,0.72c-8.76,0-13.881-3.52-15.36-10.56c-0.16-1.04-0.24-2.079-0.24-3.12v-1.44
			c0-6.319,3.519-10.64,10.56-12.96c3-0.639,8.28-1.359,15.84-2.16c2.72-0.919,4.08-2.12,4.08-3.6v-0.72
			c0-2.799-2.961-4.479-8.88-5.04h-1.2c-5.64,0-9.16,1.92-10.56,5.76c-0.201,1.12-0.44,1.68-0.72,1.68h-8.16
			c0-3.2,1.599-6.639,4.8-10.32C462.458,230.52,467.417,228.839,473.138,228.839z"/>
		<path fill="#C3002F" d="M472.777,212.339h8.64v4.32h24.72v0.24l-4.08,6.96h-29.28V212.339z"/>
		<path fill="#C3002F" d="M514.357,229.739h1.68c1.6,0,3.199,0.161,4.8,0.48v7.92l-1.68-0.48l-1.681-0.12
			c-4.641,0.081-6.98,1.48-7.02,4.2c-0.04,2.721,1.34,4.08,4.14,4.08h3.601c0.359,0,1.479,2.48,3.359,7.44
			c-2-0.159-3.04-0.24-3.119-0.24c-5.32,0.44-8.561,3.04-9.721,7.8v0.66c0.24,4.92,3.32,7.38,9.24,7.38h10.32v-38.88h8.64v6.96v39.6
			h-19.2c-11.52,0-17.279-4.959-17.279-14.88c0-4.92,1.92-8.679,5.76-11.28c-3.36-2.6-5.04-5.24-5.04-7.92v-1.92
			c0-4.8,2.96-8.24,8.88-10.32C511.637,229.9,513.076,229.739,514.357,229.739z"/>
		<path fill="#C3002F" d="M579.876,226.439l6.96,0.06v1.92c0,2.48-1.02,4.54-3.06,6.18c1.239,1.88,1.86,4.5,1.86,7.86v26.88
			c0,2.44,1.119,4.36,3.359,5.76v0.72h-7.439c-2.721-0.639-4.08-2.56-4.08-5.76v-17.76c-3.28,1.121-9.04,2.16-17.28,3.12
			c-3.681,1.2-5.52,3.6-5.52,7.2c0,4,2.559,6,7.68,6c1.52,0,4.159-0.399,7.92-1.2v8.16c-2.08,0.32-4.8,0.561-8.16,0.72
			c-7.439,0-12.32-2.64-14.64-7.92c-0.641-2.08-0.96-4.08-0.96-6v-0.24c0-7.599,4.08-12.399,12.24-14.4
			c11.679-1.119,17.52-2.24,17.52-3.36c0.48-0.8,0.72-1.44,0.72-1.92v-0.96c-0.84-3.2-3.96-4.8-9.359-4.8h-0.721
			c-5.601,0-9.12,1.92-10.56,5.76c-0.16,1.12-0.4,1.68-0.72,1.68h-7.92c0-6.519,3.999-11.319,12-14.4
			c2.199-0.48,4.759-0.8,7.68-0.96c3.64-0.12,7.02,0.381,10.14,1.5C579.296,229.36,580.076,228.08,579.876,226.439z"/>
		<path fill="#C3002F" d="M592.234,229.859h13.2v14.64l17.28-14.64h12c-7.521,6.561-11.28,9.92-11.28,10.08
			c5.76,2.92,8.64,6.84,8.64,11.76v24.48h-8.64v-23.04c0-2.919-2.32-5.319-6.96-7.2c-6.2,5.241-9.88,8.52-11.04,9.84v20.4h-8.64
			v-39.6c0-2.64-1.44-4.479-4.32-5.52h-0.24V229.859z"/>
		<path fill="#C3002F" d="M655.714,228.54h1.68c8.36,0,13.96,3.92,16.801,11.76c1.119,3.24,1.68,6.921,1.68,11.04v1.2
			c0,15.681-6.561,23.52-19.68,23.52c-3.84,0-8.081-1.359-12.721-4.08v-9.6h0.24c3.48,3.84,7.561,5.76,12.24,5.76h1.439
			c4.28,0,7.32-2.64,9.12-7.92c0.48-2.52,0.721-4.599,0.721-6.24v-3.6c0-7.959-2.88-12.6-8.641-13.92h-3.359
			c-3.681,0-7.521,1.84-11.521,5.52h-0.24v-9.12C647.314,229.979,651.394,228.54,655.714,228.54z"/>
		<path fill="#C3002F" d="M643.413,218.939h31.5v6.54h-35.521L643.413,218.939z"/>
		<path fill="#C3002F" d="M707.673,228.779c6.439,0,10.68,2.8,12.72,8.4c0.64,2.081,0.96,4.96,0.96,8.64v30h-8.64v-31.92
			c0-4.8-2.001-7.2-6-7.2h-1.2c-4.56,0-8.16,2.721-10.8,8.16c-0.16,0.88-0.24,1.6-0.24,2.16v28.8h-8.64v-40.08
			c0-2.24-1.521-3.919-4.561-5.04v-1.2h13.2v4.32C698.112,230.459,702.513,228.779,707.673,228.779z"/>
		<path fill="#C3002F" d="M745.353,229.739h1.68c1.6,0,3.199,0.161,4.8,0.48v7.92l-1.68-0.48l-1.681-0.12
			c-4.641,0.081-6.98,1.48-7.02,4.2c-0.04,2.721,1.34,4.08,4.14,4.08h3.601c0.359,0,1.479,2.48,3.359,7.44
			c-2-0.159-3.04-0.24-3.119-0.24c-5.32,0.44-8.561,3.04-9.721,7.8v0.66c0.24,4.92,3.32,7.38,9.24,7.38h10.32v-38.88h8.64v6.96v39.6
			h-19.2c-11.52,0-17.279-4.959-17.279-14.88c0-4.92,1.92-8.679,5.76-11.28c-3.36-2.6-5.04-5.24-5.04-7.92v-1.92
			c0-4.8,2.96-8.24,8.88-10.32C742.632,229.9,744.071,229.739,745.353,229.739z"/>
		<path fill="#C3002F" d="M786.212,228.959c10.759,0,16.14,5.2,16.14,15.6v31.8h-8.521v-30.42c0-4.12-0.82-6.759-2.46-7.92
			c-1.8-0.76-3.34-1.14-4.619-1.14h-1.921c-2.72,0-5.64,1.101-8.76,3.3h-0.3v-8.22C778.571,229.959,782.051,228.959,786.212,228.959
			z"/>
		<path fill="#C3002F" d="M825.752,228.54h1.8c6.68,0,11.659,2.7,14.939,8.1c0.88,2.16,1.32,4.5,1.32,7.02v32.1h-8.4v-32.1
			c0-4.68-2.699-7.02-8.1-7.02h-0.78c-3.64,0-6.521,0.9-8.64,2.7v36.42h-8.4v-32.1c0-2.4-0.779-4.2-2.34-5.4v-1.08
			c1.8-2.12,5.12-4.38,9.96-6.78C820.352,229.16,823.231,228.54,825.752,228.54z"/>
		<path fill="#C3002F" d="M857.61,228.959c10.759,0,16.14,5.2,16.14,15.6v31.8h-8.521v-30.42c0-4.12-0.82-6.759-2.46-7.92
			c-1.8-0.76-3.34-1.14-4.619-1.14h-1.921c-2.72,0-5.64,1.101-8.76,3.3h-0.3v-8.22C849.97,229.959,853.449,228.959,857.61,228.959z"
			/>
		<path fill="#C3002F" d="M894.99,228.899h3.6c5.76,0,10.58,1.701,14.46,5.1v9c-4.36-4.2-8.88-6.3-13.56-6.3h-3
			c-4.48,0-6.98,1.701-7.5,5.1v0.3c0,1.8,4.399,3.3,13.199,4.5c8.439,2.2,12.66,7.12,12.66,14.76c0,6.6-3.2,11.2-9.6,13.8
			c-2.601,0.801-5.121,1.2-7.561,1.2h-1.8c-5.36,0-10.26-1.4-14.7-4.2v-9.9c4,4.401,9,6.6,15,6.6c6.841,0,10.261-2.6,10.261-7.8
			c0-4.359-4.021-6.96-12.061-7.8c-9.2-1.399-13.8-5.319-13.8-11.76v-0.3C880.59,234.44,885.39,230.339,894.99,228.899z"/>
	</g>
</g>
<g id="_x32_80x320">
	<g>
		<path fill="#C3002F" d="M296.994,297.949c6.343,0,10.718,2.768,13.127,8.301c0,0.367,0.204,1.133,0.611,2.299
			c-4.274,1.101-6.734,1.65-7.378,1.65V310c-1.289-3.467-3.477-5.201-6.563-5.201h-1.068c-3.969,0-6.292,3.885-6.97,11.65v1.85
			c0,8.734,2.747,13.101,8.242,13.101c3.155,0,5.546-1.933,7.174-5.8c4.612,1.233,7.089,1.85,7.428,1.85
			c-2.442,7.067-7.242,10.6-14.399,10.6h-0.407c-7.564,0-12.567-3.816-15.009-11.449c-0.712-2.801-1.068-5.7-1.068-8.7
			c0-10.032,3.527-16.399,10.583-19.101C293.5,298.232,295.399,297.949,296.994,297.949z"/>
		<path fill="#C3002F" d="M316.48,332.649c-2.171-2.866-3.256-6.601-3.256-11.2c0-4.566,1.068-8.283,3.205-11.15
			c2.307-3.1,5.546-4.649,9.718-4.649c4.138,0,7.377,1.517,9.718,4.55c2.17,2.867,3.256,6.617,3.256,11.25
			c0,4.6-1.068,8.334-3.206,11.2c-2.34,3.101-5.58,4.634-9.718,4.601C322.06,337.283,318.821,335.75,316.48,332.649z
			 M321.67,315.649c-1.018,1.534-1.526,3.55-1.526,6.05c0,2.567,0.509,4.584,1.526,6.051c1.153,1.666,2.764,2.5,4.833,2.5
			c2.17,0,3.798-0.834,4.884-2.5c0.983-1.434,1.476-3.451,1.476-6.051s-0.492-4.616-1.476-6.05c-1.119-1.633-2.765-2.466-4.935-2.5
			C324.383,313.184,322.789,314.017,321.67,315.649z"/>
		<path fill="#C3002F" d="M345.227,297.5h7.886v40h-7.886v-35.551c-1.086-1.8-2.612-3-4.579-3.6v-0.85H345.227z"/>
		<path fill="#C3002F" d="M360.49,297.5h7.886v40h-7.886v-35.551c-1.086-1.8-2.612-3-4.579-3.6v-0.85H360.49z"/>
		<path fill="#C3002F" d="M371.888,321.799c0-4.6,1.221-8.332,3.663-11.199c2.612-3.066,6.241-4.6,10.888-4.6
			c4.002,0,7.208,1.066,9.616,3.199c2.442,2.134,3.9,5.134,4.376,9l0.051,6.25h-20.81c0.203,4.634,2.493,6.867,6.869,6.7
			c3.867,0.101,6.055-0.966,6.563-3.2h6.97c-1.967,6.434-6.512,9.65-13.636,9.65C376.738,337.5,371.888,332.232,371.888,321.799z
			 M393.817,319.35v-0.75c-0.306-1.833-0.984-3.267-2.035-4.301c-1.154-1.1-2.646-1.649-4.478-1.649
			c-2.307,0-4.07,0.634-5.292,1.899c-1.154,1.168-1.832,2.768-2.035,4.801H393.817z"/>
		<path fill="#C3002F" d="M430.5,310.549v27.351c-0.17,3.566-1.424,6.45-3.765,8.649c-2.307,2-5.377,3.018-9.209,3.051
			c-3.731-0.1-6.75-1.033-9.057-2.801c-2.646-1.566-4.291-4.533-4.935-8.899l5.851,0.05c0.882,3.7,3.442,5.732,7.683,6.1
			c2.646,0.033,4.765-0.732,6.36-2.299c0.983-1.135,1.628-3.168,1.933-6.101v-1.55c-0.848,1-1.9,1.816-3.154,2.449
			c-1.968,0.9-3.714,1.283-5.241,1.15c-4.241,0.1-7.497-1.449-9.769-4.65c-2.001-2.832-3.002-6.532-3.002-11.1
			c0-4.633,1-8.35,3.002-11.15c2.272-3.1,5.546-4.649,9.82-4.649c3.053,0,6.021,1.034,8.904,3.101v-2.201h0.051v-1h7.174v1.051
			C431.178,307.732,430.297,308.883,430.5,310.549z M412.642,315.899c-0.916,1.534-1.374,3.567-1.374,6.101
			c0,5.833,2.103,8.75,6.309,8.75c2.205,0,3.833-0.934,4.885-2.801c0.881-1.533,1.323-3.516,1.323-5.949c0-2.5-0.458-4.5-1.374-6
			c-1.052-1.768-2.663-2.65-4.833-2.65C415.372,313.35,413.727,314.199,412.642,315.899z"/>
		<path fill="#C3002F" d="M435.689,321.799c0-4.6,1.221-8.332,3.663-11.199c2.612-3.066,6.241-4.6,10.888-4.6
			c4.001,0,7.208,1.066,9.617,3.199c2.441,2.134,3.9,5.134,4.375,9l0.051,6.25h-20.809c0.203,4.634,2.493,6.867,6.869,6.7
			c3.866,0.101,6.054-0.966,6.563-3.2h6.971c-1.969,6.434-6.514,9.65-13.636,9.65C440.54,337.5,435.689,332.232,435.689,321.799z
			 M457.619,319.35v-0.75c-0.307-1.833-0.984-3.267-2.035-4.301c-1.154-1.1-2.646-1.649-4.478-1.649
			c-2.307,0-4.07,0.634-5.292,1.899c-1.154,1.168-1.832,2.768-2.035,4.801H457.619z"/>
		<path fill="#C3002F" d="M489.111,332.649c-2.171-2.866-3.257-6.601-3.257-11.2c0-4.566,1.068-8.283,3.206-11.15
			c2.306-3.1,5.546-4.649,9.718-4.649c4.138,0,7.377,1.517,9.718,4.55c2.171,2.867,3.257,6.617,3.257,11.25
			c0,4.6-1.069,8.334-3.206,11.2c-2.34,3.101-5.58,4.634-9.718,4.601C494.69,337.283,491.451,335.75,489.111,332.649z
			 M494.301,315.649c-1.018,1.534-1.526,3.55-1.526,6.05c0,2.567,0.509,4.584,1.526,6.051c1.152,1.666,2.765,2.5,4.834,2.5
			c2.17,0,3.798-0.834,4.884-2.5c0.983-1.434,1.476-3.451,1.476-6.051s-0.492-4.616-1.476-6.05c-1.119-1.633-2.765-2.466-4.936-2.5
			C497.014,313.184,495.42,314.017,494.301,315.649z"/>
		<path fill="#C3002F" d="M519.078,333.299v-18.1h-5.393v-5.75h5.444v-4c-0.137-2.467,0.661-4.433,2.391-5.9
			c1.323-0.932,3.155-1.449,5.495-1.549c0.916,0,1.865,0,2.85,0h1.526h1.679v6.299c-1.595,0-2.935,0.018-4.02,0.051
			c-0.95-0.033-1.679,0.15-2.188,0.55c-0.441,0.2-0.661,0.817-0.661,1.851v2.699h5.749v5.75h-5.749v21.9h-10.38v-0.7
			c2.035-0.333,3.12-1.2,3.256-2.601V333.299z"/>
		<path fill="#C3002F" d="M553.574,297.85h12.16v39.3h-8.039v-34.3c0-1.767-1.374-3.083-4.121-3.95V297.85z"/>
		<path fill="#C3002F" d="M578.606,307.299v3c0.949-1.133,2.119-2.016,3.511-2.649c1.934-0.833,3.68-1.25,5.24-1.25
			c3.766,0,6.784,0.917,9.057,2.75c2.408,1.934,3.612,4.567,3.612,7.899v20.25h-6.767v-20.25c-0.441-3.332-2.409-4.966-5.902-4.899
			c-1.933,0.067-3.442,0.5-4.528,1.3c-1.967,1.4-3.104,3.418-3.408,6.051v17.799h-7.327l-0.051-24.399
			c-0.271-2.032-1.459-3.566-3.562-4.601v-1H578.606z"/>
		<path fill="#C3002F" d="M618.648,313.049h-4.782v13.851c-0.203,1.867,0.169,3.218,1.119,4.05c1.153,0.234,2.628,0.35,4.427,0.35
			v5.951c-1.188,0.033-1.866,0.049-2.035,0.049c-5.597,0.168-8.446-0.049-8.548-0.649c-1.729-0.866-2.578-2.601-2.544-5.2
			l-0.051-18.4h-4.885V307h4.986v-9h7.429v8.949h4.884V313.049z M603.436,298.1h6.971v6.9c-1.934-2.9-4.257-4.816-6.971-5.75V298.1z
			"/>
		<path fill="#C3002F" d="M621.345,321.799c0-4.6,1.222-8.332,3.664-11.199c2.611-3.066,6.24-4.6,10.888-4.6
			c4.002,0,7.208,1.066,9.616,3.199c2.442,2.134,3.9,5.134,4.376,9l0.051,6.25h-20.81c0.203,4.634,2.493,6.867,6.868,6.7
			c3.867,0.101,6.055-0.966,6.563-3.2h6.971c-1.968,6.434-6.513,9.65-13.636,9.65C626.195,337.5,621.345,332.232,621.345,321.799z
			 M643.274,319.35v-0.75c-0.306-1.833-0.984-3.267-2.035-4.301c-1.153-1.1-2.646-1.649-4.478-1.649
			c-2.308,0-4.07,0.634-5.292,1.899c-1.153,1.168-1.831,2.768-2.035,4.801H643.274z"/>
		<path fill="#C3002F" d="M652.788,307.25h8.547l-0.051,2.549l0.56-0.449c0.475-0.434,1.153-0.883,2.035-1.35
			c1.899-0.834,3.731-1.268,5.495-1.301c0.577,0,1.441,0,2.595,0v6.85h-1.119h-0.305c-0.68,0.034-1.408,0.084-2.188,0.15
			c-1.934,0.301-3.63,1.168-5.088,2.6c-0.848,0.934-1.306,2.668-1.373,5.201l-0.052,15.699h-6.461v-25.6
			c0.169-1.7-0.696-2.9-2.595-3.6V307.25z"/>
		<path fill="#C3002F" d="M694.305,337.549v-3.399c-2.578,2.534-5.291,3.8-8.141,3.8c-4.24,0-7.496-1.566-9.769-4.699
			c-2.035-2.801-3.053-6.5-3.053-11.101c0-4.566,1.018-8.25,3.053-11.05c2.272-3.133,5.528-4.7,9.769-4.7
			c3.358,0,6.004,1.149,7.938,3.45v-13.6h5.546v37.35c0.306,1.967,1.221,2.983,2.747,3.05v0.851L694.305,337.549z M680.924,315.799
			c-0.95,1.568-1.425,3.701-1.425,6.4c0,2.7,0.475,4.817,1.425,6.35c1.152,1.834,2.866,2.75,5.139,2.75
			c4.376,0,6.563-3.032,6.563-9.1c0-2.633-0.476-4.75-1.425-6.35c-1.153-1.833-2.866-2.75-5.139-2.75S682.076,314,680.924,315.799z"
			/>
		<path fill="#C3002F" d="M715.419,307.25v30.25l-7.123-0.051l-0.051-25.55c0.033-1.7-0.899-2.966-2.799-3.8v-0.85H715.419z
			 M707.38,303.449v-7h7.378v7H707.38z"/>
		<path fill="#C3002F" d="M729.614,306.35l1.271-0.051c4.173,0.201,7.496,1.15,9.973,2.851v6.5c-3.087-2-6.513-3.133-10.277-3.399
			c-2.816-0.167-4.359,0.482-4.63,1.949l0.152,0.85c1.56,1.5,4.223,2.684,7.988,3.551c7.021,1.967,10.26,5.434,9.718,10.4
			c-0.712,4.232-3.427,6.949-8.141,8.149c-1.799,0.366-3.409,0.532-4.834,0.5c-3.833-0.167-7.326-1.566-10.48-4.2l-0.204-0.35
			v-5.801c3.46,2.867,6.818,4.434,10.074,4.701c3.9,0.399,6.19-0.483,6.869-2.65v-0.75l-0.255-0.6
			c-0.271-1.268-3.833-3.133-10.685-5.601c-4.885-2.2-7.157-5.05-6.817-8.55c0.203-3.566,2.441-5.883,6.716-6.95
			C727.342,306.566,728.528,306.383,729.614,306.35z"/>
		<path fill="#C3002F" d="M749.711,332.799c-2.442-2.899-3.663-6.699-3.663-11.399c0-4.633,1.221-8.399,3.663-11.3
			c2.646-3.166,6.274-4.75,10.888-4.75c5.394,0,9.531,2.25,12.415,6.75l-4.63,3.75c-1.73-2.767-4.206-4.184-7.429-4.25
			c-2.68,0-4.681,0.917-6.004,2.75c-1.425,1.834-2.154,4.233-2.188,7.199c0.135,3.367,0.644,5.568,1.526,6.601
			c1.695,2.3,3.985,3.45,6.868,3.45c3.324-0.4,5.767-1.982,7.327-4.75l4.528,3.9c-2.884,4.5-7.005,6.75-12.364,6.75
			C756.002,337.5,752.356,335.934,749.711,332.799z"/>
		<path fill="#C3002F" d="M785.275,307.25v30.25l-7.123-0.051l-0.051-25.55c0.033-1.7-0.899-2.966-2.799-3.8v-0.85H785.275z
			 M777.236,303.449v-7h7.378v7H777.236z"/>
		<path fill="#C3002F" d="M798.197,307.399v3c1.967-2.233,4.376-3.351,7.226-3.351c4.239,0,7.496,1.568,9.769,4.701
			c2.035,2.799,3.053,6.5,3.053,11.1c0,4.566-1.018,8.25-3.053,11.05c-2.272,3.134-5.529,4.7-9.769,4.7
			c-3.358,0-5.529-1.166-6.513-3.5v13.65h-6.971v-36.951c-0.203-1.699-1.204-2.865-3.002-3.5v-0.949L798.197,307.399z
			 M810.765,329.149c0.949-1.532,1.425-3.616,1.425-6.25c0-2.633-0.476-4.733-1.425-6.3c-1.119-1.732-2.781-2.6-4.986-2.6
			c-4.139-0.233-6.292,2.732-6.461,8.899c0,2.567,0.475,4.634,1.424,6.2c1.12,1.8,2.799,2.699,5.037,2.699
			C807.983,331.799,809.646,330.916,810.765,329.149z"/>
		<path fill="#C3002F" d="M824.349,297.5h7.887v40h-7.887v-35.551c-1.086-1.8-2.612-3-4.579-3.6v-0.85H824.349z"/>
		<path fill="#C3002F" d="M846.125,307.25v30.25l-7.123-0.051l-0.051-25.55c0.033-1.7-0.899-2.966-2.799-3.8v-0.85H846.125z
			 M838.086,303.449v-7h7.378v7H838.086z"/>
		<path fill="#C3002F" d="M858.845,307.299v3c0.949-1.133,2.119-2.016,3.511-2.649c1.934-0.833,3.68-1.25,5.24-1.25
			c3.766,0,6.784,0.917,9.057,2.75c2.408,1.934,3.612,4.567,3.612,7.899v20.25h-6.767v-20.25c-0.441-3.332-2.409-4.966-5.902-4.899
			c-1.933,0.067-3.442,0.5-4.528,1.3c-1.967,1.4-3.104,3.418-3.408,6.051v17.799h-7.327l-0.051-24.399
			c-0.271-2.032-1.459-3.566-3.562-4.601v-1H858.845z"/>
		<path fill="#C3002F" d="M883.113,328.149c0-3.366,1.781-5.917,5.343-7.649c3.019-1.334,6.071-2.184,9.158-2.551
			c0.203-0.033,0.407-0.05,0.61-0.05c0.373,0,0.713-0.032,1.018-0.101l0.61-0.049c0.509-0.033,0.983-0.101,1.425-0.201
			c1.051-0.166,1.798-0.649,2.239-1.449v0.4c-0.34-1.601-1.138-3.033-2.392-4.301c-1.561-1-3.308-1.449-5.241-1.35
			c-1.933,0.066-3.477,0.633-4.63,1.699c-1.221,1.101-1.814,2.668-1.78,4.701h-6.36c0.237-3.768,1.492-6.701,3.766-8.801
			c2.204-2.033,5.206-3.05,9.005-3.05c3.766,0,6.818,1.017,9.159,3.05c2.34,2.067,3.459,4.75,3.357,8.051v14.25
			c0,0.399,0,1.166,0,2.299c-0.034,1.5,0.746,2.484,2.341,2.951v0.699h-6.156c-0.171,0.033-0.382-0.15-0.637-0.55
			c-0.254-0.399-0.364-1.351-0.33-2.851c-2.646,2.734-5.529,4.101-8.649,4.101C887.064,337.399,883.113,334.316,883.113,328.149z
			 M900.057,329.25c1.425-1.268,2.137-2.834,2.137-4.701l0.152-1.649c-0.78,0.468-1.611,0.767-2.493,0.899l-0.254,0.051l-1.883,0.1
			L896.342,324l-1.271,0.1c-1.018,0.066-2.086,0.334-3.205,0.8c-1.459,0.767-2.29,1.784-2.493,3.05
			c-0.137,1.268,0.271,2.301,1.221,3.1c0.78,0.768,2.119,1.051,4.02,0.851C896.749,331.799,898.563,330.916,900.057,329.25z"/>
		<path fill="#C3002F" d="M912.929,307.25h8.547l-0.051,2.549l0.56-0.449c0.475-0.434,1.153-0.883,2.035-1.35
			c1.899-0.834,3.731-1.268,5.495-1.301c0.577,0,1.441,0,2.595,0v6.85h-1.119h-0.305c-0.68,0.034-1.408,0.084-2.188,0.15
			c-1.934,0.301-3.63,1.168-5.088,2.6c-0.848,0.934-1.306,2.668-1.373,5.201l-0.052,15.699h-6.461v-25.6
			c0.169-1.7-0.696-2.9-2.595-3.6V307.25z"/>
		<path fill="#C3002F" d="M950.324,324.799l5.597-17.6l8.294,0.051l-14.094,34.899l-2.951,7.95h-7.632l6.563-16.35l-7.021-19.851
			c-2.002-3.3-3.833-5.066-5.495-5.3v-1.2h9.871L950.324,324.799z"/>
		<path fill="#C3002F" d="M997.742,298.199h1.272c4.884,0,8.835,1.084,11.854,3.25v7.15c-3.799-2.833-8.09-4.25-12.872-4.25
			c-3.766,0.434-5.648,1.584-5.648,3.449V308c0,1.934,2.222,3.5,6.666,4.699c9.293,3.2,13.94,7.5,13.94,12.9
			c0,5.8-2.849,9.55-8.548,11.25c-2.272,0.533-4.273,0.8-6.004,0.8c-4.477,0-8.649-1.7-12.516-5.101l-0.204-0.399v-8.2
			c4.274,4.768,8.581,7.15,12.924,7.15h0.813c2.781,0,4.732-1.083,5.852-3.25l0.203-1.45v-1c0-2.333-4.308-5-12.923-8
			c-5.122-2.532-7.683-5.733-7.683-9.601c0-4.332,2.916-7.399,8.751-9.199C995.012,298.333,996.385,298.199,997.742,298.199z"/>
		<path fill="#C3002F" d="M1031.118,313.049h-4.782v13.851c-0.203,1.867,0.169,3.218,1.119,4.05c1.153,0.234,2.628,0.35,4.427,0.35
			v5.951c-1.188,0.033-1.866,0.049-2.035,0.049c-5.597,0.168-8.446-0.049-8.548-0.649c-1.729-0.866-2.578-2.601-2.544-5.2
			l-0.051-18.4h-4.885V307h4.986v-9h7.429v8.949h4.884V313.049z M1015.905,298.1h6.971v6.9c-1.934-2.9-4.257-4.816-6.971-5.75V298.1
			z"/>
		<path fill="#C3002F" d="M1059.153,337.299h-4.274v-2c-1.392,0.934-2.663,1.584-3.815,1.951c-1.697,0.633-3.24,0.949-4.631,0.949
			c-3.426,0-6.174-0.916-8.242-2.75c-2.171-1.933-3.256-4.566-3.256-7.9v-20.25h6.105v18.65c0.509,3.668,2.408,5.717,5.698,6.15
			c1.526,0.233,2.85-0.166,3.969-1.2c1.425-1.066,2.17-2.55,2.238-4.45l0.051-19.1l6.157-0.051v23.5
			c-0.068,3.201,0.915,5.084,2.95,5.65v0.85H1059.153z"/>
		<path fill="#C3002F" d="M1084.032,337.549v-3.399c-2.578,2.534-5.291,3.8-8.141,3.8c-4.24,0-7.496-1.566-9.769-4.699
			c-2.035-2.801-3.053-6.5-3.053-11.101c0-4.566,1.018-8.25,3.053-11.05c2.272-3.133,5.528-4.7,9.769-4.7
			c3.358,0,6.004,1.149,7.938,3.45v-13.6h5.546v37.35c0.306,1.967,1.221,2.983,2.747,3.05v0.851L1084.032,337.549z
			 M1070.651,315.799c-0.95,1.568-1.425,3.701-1.425,6.4c0,2.7,0.475,4.817,1.425,6.35c1.152,1.834,2.866,2.75,5.139,2.75
			c4.376,0,6.563-3.032,6.563-9.1c0-2.633-0.476-4.75-1.425-6.35c-1.153-1.833-2.866-2.75-5.139-2.75S1071.804,314,1070.651,315.799
			z"/>
		<path fill="#C3002F" d="M1105.147,307.25v30.25l-7.123-0.051l-0.051-25.55c0.033-1.7-0.899-2.966-2.799-3.8v-0.85H1105.147z
			 M1097.108,303.449v-7h7.378v7H1097.108z"/>
		<path fill="#C3002F" d="M1108.453,321.799c0-4.6,1.222-8.332,3.664-11.199c2.611-3.066,6.24-4.6,10.888-4.6
			c4.002,0,7.208,1.066,9.616,3.199c2.442,2.134,3.9,5.134,4.376,9l0.051,6.25h-20.81c0.203,4.634,2.493,6.867,6.868,6.7
			c3.867,0.101,6.055-0.966,6.563-3.2h6.971c-1.968,6.434-6.513,9.65-13.636,9.65C1113.304,337.5,1108.453,332.232,1108.453,321.799
			z M1130.383,319.35v-0.75c-0.306-1.833-0.984-3.267-2.035-4.301c-1.153-1.1-2.646-1.649-4.478-1.649
			c-2.308,0-4.07,0.634-5.292,1.899c-1.153,1.168-1.831,2.768-2.035,4.801H1130.383z"/>
		<path fill="#C3002F" d="M1151.242,306.35l1.271-0.051c4.173,0.201,7.496,1.15,9.973,2.851v6.5c-3.087-2-6.513-3.133-10.277-3.399
			c-2.816-0.167-4.359,0.482-4.63,1.949l0.152,0.85c1.56,1.5,4.223,2.684,7.988,3.551c7.021,1.967,10.26,5.434,9.718,10.4
			c-0.712,4.232-3.427,6.949-8.141,8.149c-1.799,0.366-3.409,0.532-4.834,0.5c-3.833-0.167-7.326-1.566-10.48-4.2l-0.204-0.35
			v-5.801c3.46,2.867,6.818,4.434,10.074,4.701c3.9,0.399,6.19-0.483,6.869-2.65v-0.75l-0.255-0.6
			c-0.271-1.268-3.833-3.133-10.685-5.601c-4.885-2.2-7.157-5.05-6.817-8.55c0.203-3.566,2.441-5.883,6.716-6.95
			C1148.97,306.566,1150.156,306.383,1151.242,306.35z"/>
	</g>
</g>
</svg>
